<svg width="424" height="59" viewBox="0 0 424 59" fill="none" xmlns="http://www.w3.org/2000/svg">
<g clip-path="url(#clip0_505_784)">
<path d="M290.7 25.08H287.24V15.7H290.7C293.67 15.7 295.58 17.64 295.58 20.39C295.58 23.14 293.67 25.08 290.7 25.08ZM289.14 23.42H290.58C292.29 23.42 293.63 22.29 293.63 20.39C293.63 18.49 292.29 17.36 290.58 17.36H289.14V23.43V23.42Z" fill="white"/>
<path d="M300.11 25.26C297.9 25.26 296.59 23.77 296.59 21.79C296.59 19.81 297.9 18.35 299.84 18.35C301.78 18.35 302.91 19.65 302.91 21.62C302.91 21.81 302.89 22.14 302.89 22.14H298.4C298.51 23.27 299.18 23.78 300.23 23.78C301.28 23.78 301.92 23.23 301.92 23.23L302.58 24.47C302.58 24.47 301.78 25.27 300.11 25.27V25.26ZM298.45 21.02H301.08C301 20.22 300.56 19.75 299.8 19.75C299.11 19.75 298.61 20.16 298.45 21.02Z" fill="white"/>
<path d="M306.07 15.61V25.07H304.19V15.61H306.07Z" fill="white"/>
<path d="M307.65 16.41C307.65 15.78 308.12 15.33 308.74 15.33C309.36 15.33 309.85 15.78 309.85 16.41C309.85 17.04 309.36 17.47 308.74 17.47C308.12 17.47 307.65 17.03 307.65 16.41ZM309.67 18.51V25.08H307.79V18.51H309.67Z" fill="white"/>
<path d="M312.59 18.51L313.98 22.33C314.04 22.5 314.09 22.69 314.09 22.86H314.18C314.18 22.69 314.24 22.5 314.3 22.33L315.69 18.51H317.74L314.8 25.08H313.47L310.53 18.51H312.58H312.59Z" fill="white"/>
<path d="M321.54 25.26C319.33 25.26 318.02 23.77 318.02 21.79C318.02 19.81 319.33 18.35 321.27 18.35C323.21 18.35 324.34 19.65 324.34 21.62C324.34 21.81 324.32 22.14 324.32 22.14H319.83C319.94 23.27 320.61 23.78 321.66 23.78C322.71 23.78 323.35 23.23 323.35 23.23L324.01 24.47C324.01 24.47 323.21 25.27 321.54 25.27V25.26ZM319.88 21.02H322.51C322.43 20.22 321.99 19.75 321.23 19.75C320.54 19.75 320.04 20.16 319.88 21.02Z" fill="white"/>
<path d="M328.99 20.09C328.11 20.09 327.49 20.7 327.49 21.69V25.08H325.61V18.51H326.78L327.05 19.48H327.14C327.48 18.84 328.11 18.51 328.97 18.51H329.33V20.09H328.99Z" fill="white"/>
<path d="M336.68 24.72C336.68 26.55 335.59 27.9 333.36 27.9C331.98 27.9 331.11 27.32 330.72 26.88L331.61 25.72C331.84 25.97 332.41 26.42 333.32 26.42C334.35 26.42 334.87 25.83 334.87 24.78V24.47C334.56 24.83 333.93 25.24 333.02 25.24C331.3 25.24 330.28 24.1 330.28 22.32V18.52H332.16V22.18C332.16 23.02 332.58 23.67 333.43 23.67C334.32 23.67 334.82 23.06 334.87 22.37V18.52H336.68V24.73V24.72Z" fill="white"/>
<path d="M341.26 20.38C341.26 17.67 343.18 15.48 346.01 15.48C348.84 15.48 350.78 17.67 350.78 20.38C350.78 23.09 348.87 25.29 346.01 25.29C343.15 25.29 341.26 23.08 341.26 20.38ZM348.83 20.38C348.83 18.6 347.66 17.3 346.01 17.3C344.36 17.3 343.23 18.6 343.23 20.38C343.23 22.16 344.4 23.46 346.01 23.46C347.62 23.46 348.83 22.16 348.83 20.38Z" fill="white"/>
<path d="M354.65 25.08H352.77V19.97H351.64V18.52H352.77V18.13C352.77 16.5 353.65 15.52 355.27 15.52C356.22 15.52 356.83 15.83 356.83 15.83L356.25 17.22C356.25 17.22 355.97 17.08 355.53 17.08C354.98 17.08 354.64 17.46 354.64 18.03V18.51H356.38V19.96H354.64V25.07L354.65 25.08Z" fill="white"/>
<path d="M357.26 16.41C357.26 15.78 357.73 15.33 358.35 15.33C358.97 15.33 359.46 15.78 359.46 16.41C359.46 17.04 358.97 17.47 358.35 17.47C357.73 17.47 357.26 17.03 357.26 16.41ZM359.28 18.51V25.08H357.4V18.51H359.28Z" fill="white"/>
<path d="M360.62 21.79C360.62 19.8 362 18.35 364.08 18.35C365.49 18.35 366.14 18.94 366.14 18.94L365.66 20.28C365.66 20.28 365.05 19.89 364.25 19.89C363.25 19.89 362.51 20.61 362.51 21.78C362.51 22.95 363.25 23.67 364.25 23.67C365.05 23.67 365.66 23.28 365.66 23.28L366.13 24.61C366.13 24.61 365.47 25.22 364.08 25.22C362 25.22 360.62 23.77 360.62 21.78V21.79Z" fill="white"/>
<path d="M367.26 16.41C367.26 15.78 367.73 15.33 368.35 15.33C368.97 15.33 369.46 15.78 369.46 16.41C369.46 17.04 368.97 17.47 368.35 17.47C367.73 17.47 367.26 17.03 367.26 16.41ZM369.28 18.51V25.08H367.4V18.51H369.28Z" fill="white"/>
<path d="M376.2 18.51H377.44V25.08H376.2L375.9 24.17H375.82C375.82 24.17 375.29 25.23 373.68 25.23C371.94 25.23 370.61 23.9 370.61 21.8C370.61 19.7 371.92 18.34 373.66 18.34C375.29 18.34 375.82 19.4 375.82 19.4H375.9L376.2 18.49V18.51ZM374.07 19.9C373.16 19.9 372.52 20.67 372.52 21.78C372.52 22.89 373.16 23.69 374.07 23.69C374.98 23.69 375.67 22.96 375.67 21.78C375.67 20.6 375.01 19.9 374.07 19.9Z" fill="white"/>
<path d="M381.04 15.61V25.07H379.16V15.61H381.04Z" fill="white"/>
<path d="M390.54 15.61H392.42V25.07H391.18L390.88 24.16H390.8C390.8 24.16 390.27 25.22 388.66 25.22C386.92 25.22 385.59 23.89 385.59 21.79C385.59 19.69 386.89 18.33 388.59 18.33C390.01 18.33 390.45 19.17 390.45 19.17H390.53V15.59L390.54 15.61ZM389.05 19.9C388.14 19.9 387.5 20.67 387.5 21.78C387.5 22.89 388.14 23.69 389.05 23.69C389.96 23.69 390.65 22.96 390.65 21.78C390.65 20.6 389.99 19.9 389.05 19.9Z" fill="white"/>
<path d="M397.26 25.26C395.05 25.26 393.74 23.77 393.74 21.79C393.74 19.81 395.05 18.35 396.99 18.35C398.93 18.35 400.06 19.65 400.06 21.62C400.06 21.81 400.04 22.14 400.04 22.14H395.55C395.66 23.27 396.33 23.78 397.38 23.78C398.43 23.78 399.07 23.23 399.07 23.23L399.73 24.47C399.73 24.47 398.93 25.27 397.26 25.27V25.26ZM395.6 21.02H398.23C398.15 20.22 397.71 19.75 396.95 19.75C396.26 19.75 395.76 20.16 395.6 21.02Z" fill="white"/>
<path d="M288.94 31.61V41.07H287.06V31.61H288.94Z" fill="white"/>
<path d="M295.85 34.51H297.09V41.08H295.85L295.55 40.17H295.47C295.47 40.17 294.94 41.23 293.33 41.23C291.59 41.23 290.26 39.9 290.26 37.81C290.26 35.72 291.57 34.35 293.31 34.35C294.94 34.35 295.47 35.41 295.47 35.41H295.55L295.85 34.5V34.51ZM293.72 35.9C292.81 35.9 292.17 36.67 292.17 37.78C292.17 38.89 292.81 39.69 293.72 39.69C294.63 39.69 295.32 38.95 295.32 37.78C295.32 36.61 294.66 35.9 293.72 35.9Z" fill="white"/>
<path d="M305.29 39.54C306.29 39.54 306.73 39.12 306.73 38.49C306.73 37.86 306.37 37.57 304.85 37.11C302.82 36.52 301.75 35.77 301.75 34.26C301.75 32.62 302.94 31.48 305.27 31.48C307.6 31.48 308.66 32.45 308.66 32.45L307.64 34C307.64 34 306.7 33.22 305.26 33.22C304.34 33.22 303.87 33.58 303.87 34.16C303.87 34.74 304.34 34.97 305.67 35.38C307.84 35.99 308.89 36.8 308.89 38.32C308.89 39.96 307.75 41.28 305.34 41.28C302.93 41.28 301.62 40.08 301.62 40.08L302.65 38.64C302.65 38.64 303.85 39.55 305.28 39.55L305.29 39.54Z" fill="white"/>
<path d="M313.36 41.26C311.15 41.26 309.84 39.77 309.84 37.79C309.84 35.81 311.15 34.35 313.09 34.35C315.03 34.35 316.16 35.65 316.16 37.62C316.16 37.81 316.14 38.14 316.14 38.14H311.65C311.76 39.27 312.43 39.78 313.48 39.78C314.53 39.78 315.17 39.23 315.17 39.23L315.83 40.47C315.83 40.47 315.03 41.27 313.36 41.27V41.26ZM311.7 37.02H314.33C314.25 36.22 313.81 35.75 313.05 35.75C312.36 35.75 311.86 36.16 311.7 37.02Z" fill="white"/>
<path d="M319.32 31.61V41.07H317.44V31.61H319.32Z" fill="white"/>
<path d="M324.17 41.26C321.96 41.26 320.65 39.77 320.65 37.79C320.65 35.81 321.96 34.35 323.9 34.35C325.84 34.35 326.97 35.65 326.97 37.62C326.97 37.81 326.95 38.14 326.95 38.14H322.46C322.57 39.27 323.24 39.78 324.29 39.78C325.34 39.78 325.98 39.23 325.98 39.23L326.64 40.47C326.64 40.47 325.84 41.27 324.17 41.27V41.26ZM322.51 37.02H325.14C325.06 36.22 324.62 35.75 323.86 35.75C323.17 35.75 322.67 36.16 322.51 37.02Z" fill="white"/>
<path d="M327.85 37.79C327.85 35.8 329.23 34.35 331.31 34.35C332.72 34.35 333.37 34.94 333.37 34.94L332.88 36.28C332.88 36.28 332.27 35.89 331.47 35.89C330.47 35.89 329.73 36.61 329.73 37.78C329.73 38.95 330.47 39.67 331.47 39.67C332.27 39.67 332.88 39.28 332.88 39.28L333.35 40.61C333.35 40.61 332.69 41.22 331.3 41.22C329.22 41.22 327.84 39.77 327.84 37.78L327.85 37.79Z" fill="white"/>
<path d="M334.03 37.79C334.03 35.8 335.41 34.35 337.49 34.35C338.9 34.35 339.55 34.94 339.55 34.94L339.06 36.28C339.06 36.28 338.45 35.89 337.65 35.89C336.65 35.89 335.91 36.61 335.91 37.78C335.91 38.95 336.65 39.67 337.65 39.67C338.45 39.67 339.06 39.28 339.06 39.28L339.53 40.61C339.53 40.61 338.87 41.22 337.48 41.22C335.4 41.22 334.02 39.77 334.02 37.78L334.03 37.79Z" fill="white"/>
<path d="M340.66 32.41C340.66 31.78 341.13 31.33 341.75 31.33C342.37 31.33 342.86 31.78 342.86 32.41C342.86 33.04 342.37 33.47 341.75 33.47C341.13 33.47 340.66 33.03 340.66 32.41ZM342.68 34.51V41.08H340.8V34.51H342.68Z" fill="white"/>
<path d="M347.45 41.23C345.56 41.23 344.01 39.9 344.01 37.82C344.01 35.74 345.56 34.35 347.45 34.35C349.34 34.35 350.87 35.73 350.87 37.82C350.87 39.91 349.32 41.23 347.45 41.23ZM349.03 37.79C349.03 36.62 348.36 35.83 347.45 35.83C346.54 35.83 345.85 36.61 345.85 37.79C345.85 38.97 346.51 39.75 347.45 39.75C348.39 39.75 349.03 39 349.03 37.79ZM346.79 33.3L347.57 31.03L349.71 31.23L348.02 33.29H346.78L346.79 33.3Z" fill="white"/>
<path d="M352.21 41.08V34.51H353.38L353.65 35.43H353.76C354.26 34.69 354.84 34.34 355.89 34.34C357.58 34.34 358.63 35.5 358.63 37.26V41.08H356.75V37.42C356.75 36.62 356.27 35.98 355.42 35.98C354.57 35.98 354.09 36.67 354.09 37.32V41.07H352.21V41.08Z" fill="white"/>
<path d="M369.57 41.08L368.9 39.27H364.85L364.18 41.08H362.16L365.88 31.7H367.87L371.59 41.08H369.57ZM368.33 37.73L366.86 33.79L365.4 37.73H368.32H368.33Z" fill="white"/>
<path d="M375.78 36.09C374.9 36.09 374.28 36.7 374.28 37.69V41.08H372.4V34.51H373.57L373.84 35.48H373.93C374.27 34.84 374.9 34.51 375.76 34.51H376.12V36.09H375.78Z" fill="white"/>
<path d="M380.13 43.88C378.71 43.88 377.89 43.32 377.5 42.88L378.39 41.72C378.62 41.97 379.19 42.42 380.1 42.42C381.1 42.42 381.65 41.81 381.65 40.68V40.34H381.57C381.57 40.34 381.16 41.23 379.71 41.23C378.01 41.23 376.71 39.82 376.71 37.77C376.71 35.72 378.04 34.35 379.78 34.35C381.52 34.35 381.95 35.51 381.95 35.51H382.01L382.31 34.51H383.53V40.64C383.53 42.5 382.39 43.88 380.14 43.88H380.13ZM380.16 35.9C379.25 35.9 378.61 36.7 378.61 37.81C378.61 38.92 379.25 39.69 380.16 39.69C381.07 39.69 381.76 38.97 381.76 37.81C381.76 36.65 381.1 35.9 380.16 35.9Z" fill="white"/>
<path d="M388.36 41.26C386.15 41.26 384.84 39.77 384.84 37.79C384.84 35.81 386.15 34.35 388.09 34.35C390.03 34.35 391.16 35.65 391.16 37.62C391.16 37.81 391.14 38.14 391.14 38.14H386.65C386.76 39.27 387.43 39.78 388.48 39.78C389.53 39.78 390.17 39.23 390.17 39.23L390.83 40.47C390.83 40.47 390.03 41.27 388.36 41.27V41.26ZM386.7 37.02H389.33C389.25 36.22 388.81 35.75 388.05 35.75C387.36 35.75 386.86 36.16 386.7 37.02Z" fill="white"/>
<path d="M392.43 41.08V34.51H393.6L393.87 35.43H393.98C394.48 34.69 395.06 34.34 396.11 34.34C397.8 34.34 398.85 35.5 398.85 37.26V41.08H396.97V37.42C396.97 36.62 396.49 35.98 395.64 35.98C394.79 35.98 394.31 36.67 394.31 37.32V41.07H392.43V41.08Z" fill="white"/>
<path d="M400.91 32.51H402.79V34.51H404.4V35.96H402.79V38.9C402.79 39.35 403.01 39.62 403.49 39.62C403.87 39.62 404.19 39.4 404.19 39.4L404.72 40.7C404.44 40.9 403.78 41.23 403.03 41.23C401.51 41.23 400.9 40.28 400.9 38.96V35.96H399.76V34.51H400.9V32.51H400.91Z" fill="white"/>
<path d="M405.62 32.41C405.62 31.78 406.09 31.33 406.71 31.33C407.33 31.33 407.82 31.78 407.82 32.41C407.82 33.04 407.33 33.47 406.71 33.47C406.09 33.47 405.62 33.03 405.62 32.41ZM407.64 34.51V41.08H405.76V34.51H407.64Z" fill="white"/>
<path d="M409.37 41.08V34.51H410.54L410.81 35.43H410.92C411.42 34.69 412 34.34 413.05 34.34C414.74 34.34 415.79 35.5 415.79 37.26V41.08H413.91V37.42C413.91 36.62 413.43 35.98 412.58 35.98C411.73 35.98 411.25 36.67 411.25 37.32V41.07H409.37V41.08Z" fill="white"/>
<path d="M422.62 34.51H423.86V41.08H422.62L422.32 40.17H422.24C422.24 40.17 421.71 41.23 420.1 41.23C418.36 41.23 417.03 39.9 417.03 37.81C417.03 35.72 418.34 34.35 420.08 34.35C421.71 34.35 422.24 35.41 422.24 35.41H422.32L422.62 34.5V34.51ZM420.49 35.9C419.58 35.9 418.94 36.67 418.94 37.78C418.94 38.89 419.58 39.69 420.49 39.69C421.4 39.69 422.09 38.95 422.09 37.78C422.09 36.61 421.43 35.9 420.49 35.9Z" fill="white"/>
<path d="M262.39 1.86H260.39V57.05H262.39V1.86Z" fill="white"/>
<path d="M147.77 18.35C145.85 18.35 144.43 19.8 144.39 21.79C144.36 23.38 145.35 24.33 147.03 24.33C148.95 24.33 150.37 22.88 150.41 20.89C150.44 19.3 149.45 18.35 147.77 18.35Z" fill="white"/>
<path d="M133.73 33.74C133.63 34.34 133.43 34.9 133.16 35.4C132.89 35.9 132.55 36.34 132.15 36.72C131.76 37.09 131.31 37.38 130.81 37.58C129.88 37.97 128.73 37.99 127.88 37.64C127.49 37.48 127.15 37.25 126.87 36.95C126.59 36.65 126.38 36.28 126.24 35.85C126.1 35.41 126.04 34.92 126.07 34.38C126.1 33.73 126.25 33.1 126.5 32.52C126.75 31.94 127.08 31.42 127.49 30.99C127.9 30.56 128.38 30.21 128.92 29.96C129.46 29.71 130.04 29.58 130.64 29.58C131.17 29.58 131.66 29.68 132.08 29.88C132.5 30.08 132.86 30.36 133.13 30.71C133.41 31.07 133.6 31.5 133.71 32.01C133.82 32.52 133.82 33.11 133.71 33.74M141.8 19.16C141.73 19.07 141.62 19.02 141.51 19.02H137.3C137.12 19.02 136.97 19.15 136.93 19.32C136.93 19.32 135.3 27.39 135.2 27.95C134.14 26.08 132.07 24.94 129.49 24.94C124.36 24.94 120.65 29.06 120.65 34.75C120.65 39.43 123.46 42.57 127.64 42.57C129.65 42.57 131.41 41.77 132.73 40.31C132.64 40.71 132.56 41.14 132.47 41.62C132.45 41.73 132.48 41.84 132.55 41.93C132.62 42.01 132.73 42.06 132.84 42.06H137.05C137.23 42.06 137.38 41.93 137.42 41.75L141.89 19.47C141.91 19.36 141.89 19.25 141.81 19.16" fill="white"/>
<path d="M148.43 26.76H144.08C143.9 26.76 143.74 26.88 143.7 27.04L140.76 41.64C140.74 41.74 140.76 41.85 140.84 41.93C140.91 42.01 141.02 42.06 141.14 42.06H145.49C145.67 42.06 145.83 41.94 145.87 41.78L148.81 27.18C148.83 27.08 148.81 26.97 148.73 26.89C148.66 26.81 148.55 26.76 148.43 26.76Z" fill="white"/>
<path d="M91.67 29.5C91.67 29.5 87.46 29.52 87.33 29.52C87.36 29.39 88.45 23.97 88.49 23.74C88.7 23.74 92.52 23.78 92.52 23.78C94.44 23.78 95.5 24.68 95.5 26.31C95.5 28.34 94.11 29.5 91.68 29.5M85.1 40.72C85.54 38.75 86.36 34.37 86.38 34.26C86.57 34.26 91.5 34.29 91.5 34.29C97.38 34.29 101.03 31.15 101.03 26.09C101.03 21.66 97.99 19.02 92.9 19.02H84.16C83.98 19.02 83.82 19.15 83.78 19.33L79.35 41.46C79.33 41.57 79.37 41.69 79.44 41.78C79.51 41.87 79.62 41.92 79.73 41.92H83.63C83.63 41.92 84.81 41.92 85.08 40.72" fill="white"/>
<path d="M179.54 37.59C177.38 37.59 176.09 36.37 176.09 34.33C176.09 31.77 177.88 29.91 180.35 29.91C182.51 29.91 183.8 31.13 183.8 33.17C183.8 35.73 182.01 37.59 179.54 37.59ZM180.68 24.94C174.96 24.94 170.81 29.02 170.81 34.64C170.81 39.45 174.11 42.56 179.21 42.56C184.93 42.56 189.08 38.48 189.08 32.86C189.08 28.05 185.78 24.94 180.68 24.94Z" fill="white"/>
<path d="M163.42 33.74C163.32 34.34 163.12 34.9 162.85 35.4C162.58 35.9 162.24 36.34 161.84 36.72C161.45 37.09 161 37.38 160.5 37.58C159.57 37.97 158.42 37.99 157.57 37.64C157.18 37.48 156.84 37.25 156.56 36.95C156.28 36.65 156.07 36.28 155.93 35.85C155.79 35.41 155.73 34.92 155.76 34.38C155.79 33.73 155.94 33.1 156.19 32.52C156.44 31.94 156.77 31.42 157.18 30.99C157.58 30.56 158.07 30.21 158.61 29.96C159.15 29.71 159.73 29.58 160.33 29.58C160.86 29.58 161.35 29.68 161.77 29.88C162.19 30.08 162.55 30.36 162.82 30.71C163.1 31.07 163.29 31.5 163.4 32.01C163.51 32.52 163.51 33.11 163.4 33.74M171.42 19.16C171.35 19.07 171.24 19.02 171.13 19.02H166.92C166.74 19.02 166.59 19.15 166.55 19.32C166.55 19.32 164.92 27.39 164.82 27.95C163.76 26.08 161.69 24.94 159.12 24.94C153.99 24.94 150.27 29.06 150.27 34.75C150.27 39.43 153.08 42.57 157.26 42.57C159.27 42.57 161.03 41.77 162.35 40.31C162.26 40.71 162.18 41.14 162.09 41.62C162.07 41.73 162.1 41.84 162.17 41.93C162.24 42.01 162.35 42.06 162.46 42.06H166.67C166.85 42.06 167 41.93 167.04 41.75L171.51 19.47C171.53 19.36 171.51 19.25 171.43 19.16" fill="white"/>
<path d="M202.98 26.22C200.78 25.22 198.53 24.78 196.46 24.97C192.84 25.29 190.76 27.45 191.04 30.61C191.21 32.51 192.3 33.98 194.37 35.08L196.66 36.28C197.6 36.78 197.68 37.01 197.71 37.31C197.77 37.99 196.99 38.16 196.52 38.2C195.09 38.33 193.34 37.78 191.48 36.63C191.39 36.58 191.29 36.56 191.19 36.59C191.09 36.62 191.01 36.68 190.96 36.77L189.12 40.01C189.02 40.18 189.07 40.39 189.23 40.5C191.51 42.06 194.14 42.75 196.82 42.52C200.85 42.17 202.99 40.04 202.7 36.67C202.52 34.64 201.55 33.36 199.33 32.24L197.27 31.2C196.06 30.54 196 30.37 195.97 30.05C195.95 29.87 195.91 29.33 197.06 29.23C198.21 29.13 199.72 29.48 201.19 30.18C201.28 30.22 201.38 30.23 201.48 30.19C201.57 30.16 201.65 30.08 201.69 29.99L203.15 26.72C203.23 26.53 203.15 26.32 202.96 26.23" fill="white"/>
<path d="M225.75 19.12C225.68 18.98 225.54 18.9 225.39 18.9H219.44C219.31 18.9 219.18 18.97 219.1 19.08C219.1 19.08 213.19 27.46 212.77 28.27C212.66 27.51 209.75 19.21 209.75 19.21C209.7 19.04 209.54 18.92 209.36 18.92H204.15C204.02 18.92 203.89 18.98 203.82 19.09C203.74 19.2 203.73 19.34 203.77 19.46L209.29 33.45L207.63 41.58C207.61 41.7 207.63 41.82 207.72 41.92C207.8 42.01 207.91 42.07 208.03 42.07H212.24C212.79 42.07 213.27 41.68 213.37 41.14L214.84 33.6L225.69 19.56C225.78 19.44 225.79 19.27 225.73 19.14" fill="white"/>
<path d="M232.04 33.62C231.94 34.19 231.76 34.73 231.5 35.21C231.24 35.69 230.92 36.11 230.54 36.46C230.17 36.81 229.74 37.09 229.26 37.28C228.37 37.65 227.28 37.67 226.47 37.34C226.09 37.19 225.77 36.96 225.5 36.68C225.23 36.39 225.03 36.04 224.9 35.63C224.76 35.21 224.71 34.74 224.74 34.23C224.77 33.61 224.91 33.01 225.15 32.45C225.39 31.9 225.71 31.4 226.1 30.99C226.49 30.58 226.95 30.25 227.47 30.01C227.98 29.77 228.54 29.65 229.12 29.65C229.63 29.65 230.09 29.75 230.5 29.93C230.9 30.12 231.24 30.38 231.51 30.72C231.78 31.06 231.96 31.48 232.06 31.96C232.16 32.45 232.16 33.01 232.06 33.62M238.42 25.46C238.35 25.38 238.25 25.33 238.14 25.33H234.03C233.86 25.33 233.71 25.45 233.67 25.63C233.67 25.63 233.51 26.41 233.41 26.96V26.98C232.48 25.86 231.03 25.16 229.59 25.08C228.28 25 227 25.21 225.78 25.68C221.74 27.22 219.05 31.19 219.09 35.55C219.13 39.34 221.61 41.88 225.38 42.06C227.41 42.16 229.17 41.55 230.78 40.18C230.7 40.59 230.59 41.12 230.52 41.48C230.5 41.59 230.53 41.69 230.6 41.78C230.67 41.86 230.77 41.91 230.88 41.91H234.98C235.15 41.91 235.3 41.78 235.34 41.61L238.49 25.77C238.51 25.66 238.49 25.55 238.41 25.47" fill="white"/>
<path d="M106.71 31.45C107.49 29.58 108.89 28.62 110.99 28.62C113.09 28.62 114.19 29.59 114.26 31.47C113.92 31.47 107.08 31.45 106.72 31.45M111.1 24.92C105.48 24.92 101.4 29.01 101.4 34.66C101.4 39.52 104.67 42.55 109.94 42.55C112.33 42.55 114.3 41.94 116.38 40.55C116.57 40.43 116.59 40.16 116.44 40L113.85 37.32C113.74 37.21 113.56 37.18 113.42 37.26C112.29 37.86 111.22 38.13 110.04 38.13C107.63 38.13 106.23 37.03 106.2 35.11L118 35.07C118.18 35.07 118.33 34.95 118.36 34.78C118.63 33.58 118.78 32.71 118.78 31.78C118.78 27.55 115.84 24.92 111.1 24.92Z" fill="white"/>
<path d="M39.85 0.669999H39.18L36.12 0.639999H1C0.45 0.639999 0 1.09 0 1.64V7.21C0 13.32 4.31 16.68 12.13 16.68L39.84 16.73C42.77 16.73 45.14 19.1 45.14 22.03C45.14 24.96 42.77 27.33 39.84 27.33H8.77C8.32 27.33 7.92 27.64 7.81 28.08L0.46 57.13C0.39 57.43 0.46 57.74 0.64 57.98C0.83 58.22 1.12 58.36 1.42 58.36H11.27C14.96 58.36 16.74 55.3 17.15 53.69L20.05 43.14H39.84C51.55 43.14 61.07 33.62 61.07 21.91C61.07 10.2 51.55 0.669999 39.85 0.669999Z" fill="white"/>
</g>
<defs>
<clipPath id="clip0_505_784">
<rect width="423.86" height="57.72" fill="white" transform="translate(0 0.639999)"/>
</clipPath>
</defs>
</svg>
