<svg width="481" height="122" viewBox="0 0 481 122" fill="none" xmlns="http://www.w3.org/2000/svg">
<path d="M49.752 32.154L39.588 43.506H35.562L28.632 32.088L25.53 54H16.026L21.636 14.4H29.358L39.258 31.362L53.91 14.4H61.632L56.154 54H46.65L49.752 32.154ZM72.6849 22.716C69.9129 22.716 67.9989 20.868 67.9989 18.228C67.9989 14.862 70.7709 12.354 74.1369 12.354C76.9089 12.354 78.8889 14.268 78.8889 16.974C78.8889 20.274 75.9849 22.716 72.6849 22.716ZM67.3389 26.28H76.8429L72.9489 54H63.4449L67.3389 26.28ZM104.377 54H97.8433L96.9853 50.634H96.7213C95.0053 53.01 92.1013 54.66 87.4813 54.66C81.8713 54.66 78.7033 51.426 78.7033 47.07C78.7033 40.734 83.3233 36.774 92.6953 36.774C94.7413 36.774 96.3253 37.038 97.5793 37.368L97.7113 36.51C98.1073 33.804 95.9293 33.012 92.1673 33.012C88.3393 33.012 84.9733 34.86 84.9733 34.86L82.9933 28.128C82.9933 28.128 87.4153 25.62 95.2693 25.62C103.585 25.62 107.677 30.174 106.753 36.906L104.377 54ZM96.8533 42.186C96.3913 41.988 95.4013 41.592 93.2233 41.592C89.8573 41.592 87.7453 43.11 87.7453 45.552C87.7453 47.334 89.1313 48.456 91.1113 48.456C93.7513 48.456 96.2593 46.806 96.5893 44.232L96.8533 42.186ZM119.935 54H110.431L114.325 26.28H120.067L121.057 30.042H121.519C123.697 27.336 126.667 25.62 130.825 25.62C135.115 25.62 138.283 27.27 139.867 30.24H140.197C142.375 27.402 145.147 25.554 149.437 25.554C156.499 25.554 160.195 30.24 159.139 37.698L156.829 54H147.325L149.503 38.424C149.833 35.916 148.579 33.936 145.807 33.936C143.101 33.936 141.121 35.586 140.659 37.962L138.415 54H128.911L131.089 38.424C131.419 35.916 130.099 33.936 127.327 33.936C124.489 33.936 122.509 35.718 122.113 38.424L119.935 54ZM172.201 22.716C169.429 22.716 167.515 20.868 167.515 18.228C167.515 14.862 170.287 12.354 173.653 12.354C176.425 12.354 178.405 14.268 178.405 16.974C178.405 20.274 175.501 22.716 172.201 22.716ZM166.855 26.28H176.359L172.465 54H162.961L166.855 26.28Z" fill="#004ADD"/>
<path d="M13.5341 101.632C13.5341 101.632 21.0981 106.716 29.2821 106.716C34.2421 106.716 35.8541 105.104 35.8541 103.368C35.8541 97.292 11.6741 100.764 11.6741 83.404C11.6741 72.74 20.3541 64.68 35.8541 64.68C51.6021 64.68 58.7941 69.392 58.7941 69.392L51.9741 82.164C51.9741 82.164 45.2781 77.452 36.2261 77.452C32.5061 77.452 30.3981 78.568 30.3981 80.676C30.3981 86.628 55.1981 82.66 55.1981 100.268C55.1981 110.932 47.5101 119.24 28.9101 119.24C12.7901 119.24 6.59009 113.784 6.59009 113.784L13.5341 101.632ZM103.516 65.92H121.372L114.056 118H101.904L99.7964 111.056H99.0524C95.2084 115.768 90.3724 119.24 82.9324 119.24C69.6644 119.24 62.5964 110.56 64.5804 96.548L68.9204 65.92H86.6524L82.5604 95.308C81.8164 100.392 84.1724 104.236 89.3804 104.236C94.8364 104.236 98.6804 100.02 99.3004 95.68L103.516 65.92ZM130.874 101.632C130.874 101.632 138.438 106.716 146.622 106.716C151.582 106.716 153.194 105.104 153.194 103.368C153.194 97.292 129.014 100.764 129.014 83.404C129.014 72.74 137.694 64.68 153.194 64.68C168.942 64.68 176.134 69.392 176.134 69.392L169.314 82.164C169.314 82.164 162.618 77.452 153.566 77.452C149.846 77.452 147.738 78.568 147.738 80.676C147.738 86.628 172.538 82.66 172.538 100.268C172.538 110.932 164.85 119.24 146.25 119.24C130.13 119.24 123.93 113.784 123.93 113.784L130.874 101.632ZM190.104 42.98H208.208L204.364 70.632H204.86C207.464 67.408 212.424 64.556 219.368 64.556C231.644 64.556 238.588 73.236 236.604 87.248L232.264 117.876H214.408L218.5 88.736C219.12 84.024 216.02 80.304 211.308 80.304C206.844 80.304 202.752 83.652 201.884 88.116L197.668 118H179.564L190.104 42.98ZM260.983 59.224C255.775 59.224 252.179 55.752 252.179 50.792C252.179 44.468 257.387 39.756 263.711 39.756C268.919 39.756 272.639 43.352 272.639 48.436C272.639 54.636 267.183 59.224 260.983 59.224ZM250.939 65.92H268.795L261.479 118H243.623L250.939 65.92Z" fill="#FA0050"/>
<path d="M285.186 65.92L287.418 50.048H305.274L303.042 65.92H314.698L312.714 79.684H301.058L298.33 99.4C297.958 102.252 299.074 103.988 302.298 103.988C304.902 103.988 307.134 102.5 307.134 102.5L310.234 114.652C306.762 117.132 300.686 119.24 295.23 119.24C282.458 119.24 278.862 111.056 280.35 100.268L283.202 79.684H274.646L276.63 65.92H285.186ZM372.938 88.612C372.938 106.964 357.686 119.24 341.194 119.24C327.306 119.24 317.014 109.94 317.014 95.68C317.014 77.328 332.142 64.68 348.882 64.68C362.646 64.68 372.938 74.104 372.938 88.612ZM343.178 105.228C350.37 105.228 355.454 98.78 355.454 89.48C355.454 83.032 352.23 78.692 346.898 78.692C339.582 78.692 334.498 85.264 334.498 94.44C334.498 101.012 337.722 105.228 343.178 105.228ZM419.45 65.92H437.306L429.99 118H417.838L415.73 111.056H414.986C411.142 115.768 406.306 119.24 398.866 119.24C385.598 119.24 378.53 110.56 380.514 96.548L384.854 65.92H402.586L398.494 95.308C397.75 100.392 400.106 104.236 405.314 104.236C410.77 104.236 414.614 100.02 415.234 95.68L419.45 65.92ZM478.8 81.048H476.072C469.5 81.048 464.54 85.388 463.548 92.828L459.952 118H442.096L449.412 65.92H460.2L462.06 72.988H462.804C466.4 68.152 471.236 65.92 478.18 65.92H480.908L478.8 81.048Z" fill="#004ADD"/>
</svg>
