<?xml version="1.0" encoding="utf-8"?>
<!-- Generator: Adobe Illustrator 27.9.0, SVG Export Plug-In . SVG Version: 6.00 Build 0)  -->
<svg version="1.1" id="Layer_1" xmlns="http://www.w3.org/2000/svg" xmlns:xlink="http://www.w3.org/1999/xlink" x="0px" y="0px"
	 viewBox="0 0 136 172" style="enable-background:new 0 0 136 172;" xml:space="preserve">
<style type="text/css">
	.st0{fill:#45302E;stroke:#100423;stroke-linecap:round;stroke-linejoin:round;}
	.st1{fill:#00F9D2;stroke:#100423;stroke-linecap:round;stroke-linejoin:round;}
	.st2{fill:#00F9D2;}
	.st3{fill:none;stroke:#100423;stroke-linecap:round;stroke-linejoin:round;}
	.st4{fill:#45302E;}
	.st5{fill:#EB916E;stroke:#100423;stroke-linecap:round;stroke-linejoin:round;}
	.st6{opacity:0.15;fill:#100423;enable-background:new    ;}
	.st7{fill:#100423;}
	.st8{fill:#EB916E;}
	.st9{fill:#F2F7FF;}
	.st10{fill:#AEC9FF;}
	.st11{fill:#DFEAFF;}
	.st12{opacity:0.15;}
</style>
<path class="st0" d="M62,43.3l22.4-7.2l6.2,41.5c0.4,6.9-4.9,12.8-11.8,13.2c-6.9,0.4-12.8-4.9-13.2-11.8L62,43.3L62,43.3z"/>
<path class="st0" d="M62.1,37.1l-20.7-12l-20,46.5c-1.9,6.7,2,13.6,8.7,15.5s13.6-2,15.5-8.7L62.1,37.1z"/>
<path class="st1" d="M120.6,162.4c5.5-2.4,7.7-9.8,5.6-15.4l-22.3-64.6c-3.4-9.1-14.4-14.7-23.2-10.8c-8.8,3.9-11.7,15.8-7.2,24.3
	l30.2,61.2C106.5,162.4,115.1,164.8,120.6,162.4L120.6,162.4z"/>
<path class="st2" d="M17.3,156.2c1,8.5-0.1,15.2-0.1,15.2h79.9c0,0-0.8-6.5-0.6-12.3c0.7-16.5,4.3-41.2,8.2-63.4
	c1.9-10.6-3.3-22.9-16.4-27.2c0,0-16.3-4.9-26.1-6.2c-9.8-1.3-35.3,5.9-35.3,5.9c-12.3,2.5-18,14-17.2,25
	C9.7,93.1,16.3,147.5,17.3,156.2L17.3,156.2z"/>
<path class="st3" d="M97.1,171.4c0,0-0.8-6.5-0.6-12.3c0.4-10.1,4-36.8,6.7-50.7"/>
<path class="st3" d="M102.3,79.1c-3.2-4.4-8-8.9-14-10.7c0,0-16.3-4.9-26.1-6.2c-9.8-1.3-35.3,5.9-35.3,5.9c-12.3,2.5-18,14-17.2,25
	c0,0,6.8,54.4,7.6,63.2c0.8,8.6-0.1,15.2-0.1,15.2"/>
<path class="st4" d="M59.9,55.5C46.9,53.1,38.4,39.7,41,25.6C43.6,11.5,56.3,2,69.4,4.4c13.1,2.4,21.5,15.8,18.9,29.9
	C85.7,48.4,73,57.9,59.9,55.5z"/>
<path class="st3" d="M87.2,37.8c4.4-13.6-2.2-28.3-14.7-32.6S46.2,8.3,41.8,22l-2.2,7.4"/>
<path class="st1" d="M42.9,68.1c-0.5,4.8,4.8,11.1,17.8,12.3c12.8,1.2,18.6-4.6,19-9.4c0.3-3.9-6.8-6.8-16.9-7.9
	C52.6,62,43.4,63.3,42.9,68.1z"/>
<path class="st5" d="M50.3,66.7c-0.3,1.4,0.3,2.9,1.5,4.1c1.5,1.6,4,3.5,9.4,4.1c5.5,0.6,8.2-0.6,10.1-1.8c1.4-0.9,2.3-2.2,2.3-3.7
	l-0.5-24.5L55.6,43L50.3,66.7z"/>
<path class="st6" d="M55.5,43l17.1,1.8l0.8,15.1c-7.7,3.2-18.4-2.6-20-7.2L55.5,43L55.5,43z"/>
<path class="st5" d="M55.7,45.4L47.3,47c-2.5,0.5-4.9-1.2-5.3-3.7c-0.4-2.5,1.2-4.9,3.7-5.3l8.4-0.6L55.7,45.4L55.7,45.4z"/>
<path class="st3" d="M54.7,41.6l-8.9,1.2"/>
<path class="st5" d="M68.3,56.2c-11.7,0-21.2-9.5-21.2-21.2s9.5-21.2,21.2-21.2c11.7,0,21.2,9.5,21.2,21.2S80.1,56.2,68.3,56.2z"/>
<path class="st4" d="M64.7,18.2c-2.9,0.1-5.8,0.7-7.6,1.9c-1,0.7-3,1.8-3.9,7.2c-0.4,2.2-1.8,13.3-1.8,13.3c-0.2,1.3-1.4,2.2-2.7,2
	c-1.3-0.2-2.2-1.4-2-2.7L47,36c0,0-3.2-3.6-1.9-9.2c1.8-8.2,7.5-9.7,12.2-9.6S64.7,18.2,64.7,18.2L64.7,18.2z"/>
<path class="st3" d="M47,36L46.7,40c-0.2,1.3,0.7,2.5,2,2.7c1.3,0.2,2.5-0.7,2.7-1.9c0,0,1.5-11.1,1.8-13.3c0.9-5.4,2.9-6.5,3.9-7.2
	c1.9-1.3,4.7-1.8,7.6-1.9l0.2,0"/>
<path class="st4" d="M50.8,22.8c3,2.7,9.4,4.3,20.9,5.6c11.5,1.3,17.5,0.2,20.5-0.8c-0.8-8.3-6.5-15.3-18-16.6
	C62.8,9.6,53.3,15.4,50.8,22.8z"/>
<path class="st3" d="M56.9,15c-3,2.1-5.1,4.8-6.1,7.8c3,2.7,9.4,4.3,20.9,5.6s17.5,0.2,20.5-0.8c-0.8-8.3-6.5-15.3-18-16.6"/>
<path class="st3" d="M69.1,20.8c0.9,2.5,0.8,5.3,0.4,7"/>
<path class="st3" d="M76.3,32.4c1.2,4-0.3,7.1-0.3,7.1"/>
<path class="st7" d="M65.5,33.7c0.1-0.6,0.6-1,1.2-1c0.6,0.1,1,0.6,1,1.2l0,0.5c-0.1,0.6-0.6,1-1.2,1c-0.6-0.1-1-0.6-1-1.2
	L65.5,33.7z"/>
<path class="st7" d="M83.6,34.4c0.1-0.6,0.6-1,1.2-1c0.6,0.1,1,0.6,1,1.2l0,0.5c-0.1,0.6-0.6,1-1.2,1c-0.6-0.1-1-0.6-1-1.2
	L83.6,34.4z"/>
<path class="st3" d="M63.6,47c1.1,0.8,2.5,1.8,6.1,1.7"/>
<path class="st2" d="M111.9,159.2c9.7,2,15.6-3.5,16.6-10.9c0,0,7.4-28.7,6.7-66.6c-0.1-4.4-3.6-8.5-7.3-8.5c-5.2-0.1-6.4,4-7.4,7.8
	c-8.1,32.8-14,45.8-15.7,57.9C103.7,147.5,103.2,157.4,111.9,159.2L111.9,159.2z"/>
<path class="st8" d="M117.8,91.6c0.9-3.3,1.8-6.8,2.7-10.7c0.9-3.8,2.2-7.9,7.4-7.8c3.7,0.1,7.3,4.1,7.3,8.5c0.1,4.3,0.1,8.5,0,12.6
	C130.2,96,124,97,117.8,91.6L117.8,91.6z"/>
<path class="st3" d="M125.9,156.7c1.4-2.5,3-8.8,3.2-10.3c0,0,6.7-26.7,6.1-64.7c-0.1-4.4-3.6-8.3-7.3-8.5c-4.9-0.3-6.5,4-7.4,7.8
	c-5.9,26-13.5,44.7-15.3,56.2"/>
<path class="st3" d="M117.9,92.6c0,0,3.4,2.9,8.5,3.3c5.5,0.5,8.4-1.5,8.4-1.5"/>
<path class="st8" d="M122.9,63.5c0.6-6.1-0.8-8.6,0.8-11.3c1.2-2,2.9-1.7,3.6-1.6c0.7,0.1,0.8,2.3,1.1,4.1s1.2,3.5,2.6,6.2
	c1.6,2.9,4.7,8.6,1.8,13C130.2,77.9,122.2,70.1,122.9,63.5L122.9,63.5z"/>
<path class="st3" d="M123.4,67.4c-0.4-1.3-0.6-2.7-0.5-4c0.6-6.1-0.6-8.5,0.8-11.3c0.9-1.9,2.9-1.7,3.6-1.6s0.8,2.3,1.1,4.1
	s1.1,3,2.4,5.7c1.4,2.8,3.8,7,3.1,11.2l-0.3,2.2"/>
<path class="st9" d="M102.6,37.9l18.3,2.5c0.9,0.1,1.7,0.5,2.3,1c1.3,1,2.7,2.8,2.7,2.8c0.6,0.8,1,1.8,0.8,2.9L120.9,91
	c-0.3,2.1-2.3,3.6-4.5,3.3l-19.9-2.7c-0.9-0.1-1.7-0.6-2.3-1.2h0c0,0-1.1-1-1.8-2c-0.7-1-1.1-2.2-0.9-3.5l5.8-43
	C97.5,39.4,99.9,37.5,102.6,37.9L102.6,37.9z"/>
<path class="st10" d="M102.6,37.9l18.3,2.5c0.9,0.1,1.7,0.5,2.3,1c1.3,1,3.7,3.2,3.6,5.1c-0.8-2.4-2.5-2.7-3.6-2.9L104.3,41
	c-2.2-0.3-4.2,1.2-4.5,3.3L94,87.4c-0.2,1.6,0.8,3.8,3,4.3c-2.3-0.1-4-2.2-4.8-3.2c-0.7-1-1.1-2.2-0.9-3.5l5.8-43
	C97.5,39.4,99.9,37.5,102.6,37.9L102.6,37.9z"/>
<path class="st3" d="M102.6,37.9l18.3,2.5c0.9,0.1,1.7,0.5,2.3,1c1.3,1,2.7,2.8,2.7,2.8c0.6,0.8,1,1.8,0.8,2.9L120.9,91
	c-0.3,2.1-2.3,3.6-4.5,3.3l-19.9-2.7c-0.9-0.1-1.7-0.6-2.3-1.2h0c0,0-1.1-1-1.8-2c-0.7-1-1.1-2.2-0.9-3.5l5.8-43
	C97.5,39.4,99.9,37.5,102.6,37.9L102.6,37.9z"/>
<path class="st10" d="M111.5,44.8l3,0.4c0.8,0.1,1.4,0.8,1.3,1.6c-0.1,0.8-0.9,1.4-1.7,1.2l-3-0.4c-0.8-0.1-1.4-0.8-1.3-1.6
	C109.9,45.3,110.6,44.7,111.5,44.8z"/>
<path class="st11" d="M120.5,49c-0.8-0.1-1.4-0.8-1.3-1.6s0.9-1.3,1.7-1.2c0.8,0.1,1.4,0.8,1.3,1.6C122,48.5,121.3,49.1,120.5,49z"
	/>
<path class="st8" d="M126.1,64.7c-4.6-2.1-6.8-3.7-9.2-5.2c0.4,5.9,0,9.2-2.1,16c-2.2,7.2-4.4,8.9,0.8,11c5.2,2.1,12.1,2.5,16.4-0.4
	c4.3-2.9,3-9.8,2.4-14.5C133.9,67.5,128.9,66,126.1,64.7L126.1,64.7z"/>
<path class="st3" d="M135.2,82.1c0.3-3.5-0.5-7.7-0.8-10.5c-0.1-1.3-0.6-2.9-0.6-2.9"/>
<path class="st3" d="M126.1,64.7c-4.6-2.1-6.8-3.7-9.2-5.2c0.4,5.9,0,9.2-2.1,16c-2.2,7.2-4.4,8.9,0.8,11c2.3,0.9,5.1,1.9,7.9,2.4"
	/>
<path class="st8" d="M124.2,63.8c-6.2-3.2-10.4-7.9-14.1-7.7c-3.7,0.2-6.2,0.8-8.4,1c-2.2,0.2-1.5,2.9,0.2,3.6
	c1.7,0.7,7.3,1.1,7.8,1.1s6.4,4.9,6.4,4.9s-5.2-3-7.7-3.4c-2.5-0.4-7.4-1.3-8.4-1.8c-1.1-0.5-2.9,1.7-0.7,3.7c2.2,2,8.3,3.6,8.3,3.6
	l6.2,4.4c0,0-5.3-2.3-6.9-3c-1.6-0.8-3.6-1-6-2.1c-2.4-1-2.2,2.6,0,4c2.1,1.4,3,2.1,3,2.1s-0.8,1.4,1.1,4c2,2.8,3.2,4.1,5.1,5.2
	c4.1,2.5,7,3.9,10.5,4.7"/>
<path class="st3" d="M124.2,63.8c-6.2-3.2-10.4-7.9-14.1-7.7c-3.7,0.2-6.2,0.8-8.4,1c-2.2,0.2-1.5,2.9,0.2,3.6
	c1.7,0.7,7.3,1.1,7.8,1.1s6.4,4.9,6.4,4.9s-5.2-3-7.7-3.4c-2.5-0.4-7.4-1.3-8.4-1.8c-1.1-0.5-2.9,1.7-0.7,3.7c2.2,2,8.3,3.6,8.3,3.6
	l6.2,4.4c0,0-5.3-2.3-6.9-3c-1.6-0.8-3.6-1-6-2.1c-2.4-1-2.2,2.6,0,4c2.1,1.4,3,2.1,3,2.1s-0.8,1.4,1.1,4c2,2.8,3.2,4.1,5.1,5.2
	c4.1,2.5,7,3.9,10.5,4.7"/>
<path class="st3" d="M103.7,74.2c2,1.5,5.3,3.6,8,5.1"/>
<path class="st2" d="M12.3,161.2c-5.7-1-12.4-6.6-11.1-14.4l8.5-59c1.1-9.6,10.3-17.7,19.4-16.1c9.2,1.7,13.9,12.9,11.6,22.3
	l-14.4,58.2C24.8,158.1,18,162.2,12.3,161.2L12.3,161.2z"/>
<path class="st3" d="M40.4,95.5l-14.1,56.8c-1.4,5.9-8.2,10-14,8.9c-5.7-1-12.4-6.7-11.1-14.4l8.2-58.6c0.4-3.3,1.8-7.4,3.7-10"/>
<path class="st2" d="M8.5,155.3c7.9,6,15.5,2.4,19.4-4c0,0,23.2-37,37.3-72.3c1.6-4.1-0.1-9.2-3.5-10.7c-4.8-2.1-7.5,1.2-9.8,4.3
	c-20.2,27.1-37.3,47-43.5,57.5C4,137.6-1.4,147.7,8.5,155.3L8.5,155.3z"/>
<path class="st8" d="M51.9,72.6c2.3-3.1,5.1-6.4,9.8-4.3c3.4,1.5,5.1,6.6,3.5,10.7c-1.6,4-3.2,7.8-4.8,11.4
	c-5.9,0.6-12.7-1.3-15.2-9C47.2,78.7,49.5,75.7,51.9,72.6z"/>
<path class="st3" d="M25.5,154.5c0.9-0.9,1.6-1.9,2.4-3.2c0,0,23.1-37,37.3-72.3c1.6-4.1-0.1-9.1-3.5-10.7c-4.4-2.2-7.5,1.1-9.8,4.3
	c-15.5,21.6-37.5,47.8-43.6,57.7"/>
<path class="st3" d="M45.3,81.8c0,0,1.5,4.4,6.1,6.8c4.5,2.4,8.7,1.5,8.7,1.5"/>
<path class="st5" d="M69.1,57.5c-3.7,0-6.1-1-8.4-2.2c-2.7-1.5-5.7-0.6-6.4,2.2c-0.8,3.2-1.8,3.5-2.8,7.2c-0.7,2.4-1.1,8-1.1,8
	L69.1,57.5L69.1,57.5z"/>
<path class="st6" d="M65.5,57c0,0-4.4,2-5.1,2.2c-0.7,0.2-1.9-4.9-0.1-4.2C63.1,56.2,65.5,57,65.5,57L65.5,57z"/>
<path class="st8" d="M60.1,60.3c4.9-1.4,7.3-2.8,9.9-4c-1.1,6-1.1,9.4,0.3,16.8c1.4,7.8,3.4,9.9-2.1,11.2
	c-5.5,1.3-13.2,2.4-17.2-1.2c-4-3.6-0.5-12.1,0.6-16.9C52.5,62.1,57.1,61.2,60.1,60.3z"/>
<path class="st3" d="M48.9,76.8c0.1-3.7,1.4-7.9,2-10.7c0.3-1.3,1-2.9,1-2.9"/>
<path class="st8" d="M61.7,58.8c7.7-3.7,10.5-4.3,12.5-4c0.8,0.1,4.5,1.5,6,2.1c2.5,0.9,2.5,5.2-0.4,5.4c-1.1,0.1-5.2-0.7-6-0.6
	c-0.5,0.1-3.2,0.8-3.2,0.8s2.4-0.4,3-0.6c0.5-0.1,3.8,0.3,4.7,0.3c2.8,0.2,3.6,5.7,0.5,6.4c-0.9,0.2-2.3,0.4-2.3,0.4L72,70.2
	c0,0,3.4-0.7,4.3-0.9c0.8-0.1,1-0.2,1.6-0.2c2.6,0,2.7,4.2,1.2,5.5c-0.5,0.4-1,0.9-1.4,1.2c0,0,1.7,1-0.3,3.6
	c-1.1,1.4-1.1,1.8-3.2,2.7c-4.4,1.9-7.5,2.9-11.1,3.2"/>
<path class="st3" d="M61.7,58.8c7.7-3.7,10.5-4.3,12.5-4c0.8,0.1,4.5,1.5,6,2.1c2.5,0.9,2.5,5.2-0.4,5.4c-1.1,0.1-5.2-0.7-6-0.6
	c-0.5,0.1-3.2,0.8-3.2,0.8s2.4-0.4,3-0.6c0.5-0.1,3.8,0.3,4.7,0.3c2.8,0.2,3.6,5.7,0.5,6.4c-0.9,0.2-2.3,0.4-2.3,0.4L72,70.2
	c0,0,3.4-0.7,4.3-0.9c0.8-0.1,1-0.2,1.6-0.2c2.6,0,2.7,4.2,1.2,5.5c-0.5,0.4-1,0.9-1.4,1.2c0,0,1.7,1-0.3,3.6
	c-1.1,1.4-1.1,1.8-3.2,2.7c-4.4,1.9-7.5,2.9-11.1,3.2"/>
<g class="st12">
	<path class="st7" d="M78.5,68.6c-0.9,0.2-2.3,0.4-2.3,0.4l-0.2,0c0.3-0.5,1-1.8,0.7-3.7c-0.3-2.1-1.5-3-2.2-3.5
		c1.2,0.1,2.9,0.3,3.5,0.3C80.8,62.4,81.7,67.9,78.5,68.6L78.5,68.6z"/>
	<path class="st7" d="M75.4,69.6c0.1,0,0.8-0.2,0.9-0.2c0.8-0.1,1-0.2,1.6-0.2c2.6,0,2.7,4.2,1.2,5.5c-0.5,0.4-1,0.9-1.4,1.1
		c0,0,1.7,1-0.3,3.6c-0.2,0.3-1.2,1.4-1.4,1.6c1.1-2.1-0.4-4.1-0.4-4.1s2.2-1.5,1.8-4.2C77.1,70.3,75.8,69.9,75.4,69.6L75.4,69.6z"
		/>
	<path class="st7" d="M74.1,54.8c0.8,0.1,4.5,1.5,6,2.1c2.5,0.9,2.5,5.2-0.4,5.4c-0.9,0.1-4.3-0.5-5.6-0.6c-0.1,0-0.2,0-0.2,0
		s1.7-0.6,1.9-3.4c0.2-1.8-1.2-3-2.7-3.6C73.5,54.7,73.8,54.7,74.1,54.8L74.1,54.8z"/>
</g>
<path class="st3" d="M78.2,75.5c-1.4,0.8-2.1,1.4-5.3,2"/>
<path class="st3" d="M134.6,171.4h-4.7"/>
<path class="st3" d="M125,171.4H5.6"/>
</svg>
