<svg width="172" height="22" viewBox="0 0 172 22" fill="none" xmlns="http://www.w3.org/2000/svg">
<path d="M39.5858 1.36643C39.3252 1.36331 39.0665 1.41292 38.8255 1.51226C38.5845 1.61161 38.3661 1.75861 38.1833 1.9445C38.0005 2.1304 37.8572 2.35134 37.762 2.59401C37.6667 2.83668 37.6215 3.0961 37.629 3.35668C37.6125 3.55926 37.6414 3.76296 37.7136 3.95296C37.7857 4.14297 37.8994 4.31447 38.0463 4.45496C38.1932 4.59544 38.3696 4.70136 38.5627 4.76501C38.7557 4.82866 38.9605 4.84845 39.1622 4.82289C39.4226 4.82603 39.6809 4.77639 39.9217 4.67698C40.1624 4.57758 40.3805 4.43045 40.5628 4.24447C40.7452 4.05849 40.8879 3.83751 40.9825 3.59487C41.0772 3.35222 41.1217 3.09295 41.1134 2.83263C41.1308 2.63034 41.1028 2.4267 41.0312 2.23666C40.9597 2.04662 40.8466 1.875 40.7001 1.73439C40.5536 1.59378 40.3775 1.48774 40.1847 1.42407C39.9919 1.36039 39.7873 1.34071 39.5858 1.36643Z" fill="white"/>
<path d="M36.1407 1.82924C36.1214 1.80489 36.0968 1.78525 36.0688 1.77174C36.0408 1.75822 36.0101 1.75121 35.979 1.75122H33.5372C33.4867 1.7517 33.4379 1.76977 33.3992 1.80233C33.3605 1.83489 33.3344 1.8799 33.3254 1.92962C33.3254 1.92962 32.3832 6.59581 32.3274 6.91916C31.9839 6.35825 31.4956 5.90025 30.9138 5.59321C30.3321 5.28616 29.6785 5.14141 29.0215 5.1742C26.0612 5.1742 23.9093 7.5603 23.9093 10.8495C23.9093 13.5534 25.5316 15.3708 27.9511 15.3708C28.5072 15.3775 29.0582 15.2638 29.5662 15.0377C30.0743 14.8116 30.5275 14.4783 30.8947 14.0606C30.8445 14.2948 30.7999 14.5401 30.7442 14.8189C30.7394 14.8504 30.7414 14.8825 30.7501 14.9131C30.7588 14.9438 30.7739 14.9722 30.7945 14.9965C30.8151 15.0208 30.8407 15.0404 30.8695 15.054C30.8983 15.0676 30.9297 15.0748 30.9616 15.0753H33.3923C33.4425 15.0738 33.4908 15.0554 33.5292 15.023C33.5677 14.9906 33.5941 14.9461 33.6041 14.8969L36.1909 2.00765C36.1966 1.97605 36.195 1.94358 36.1863 1.91268C36.1776 1.88177 36.162 1.85323 36.1407 1.82924ZM31.4633 10.2697C31.4053 10.6048 31.2943 10.9285 31.1344 11.2286C30.9856 11.5156 30.7875 11.7741 30.549 11.9924C30.3241 12.2036 30.0637 12.3734 29.7797 12.4941C29.2453 12.7108 28.6498 12.7227 28.1072 12.5275C27.8844 12.4394 27.6843 12.3022 27.5219 12.1262C27.3543 11.9447 27.2303 11.7273 27.1595 11.4906C27.0732 11.215 27.0392 10.9257 27.0591 10.6377C27.0749 10.2665 27.16 9.90156 27.31 9.5617C27.4404 9.23478 27.6293 8.93438 27.8675 8.67527C28.1044 8.42841 28.3839 8.22633 28.6926 8.07875C29.0052 7.93391 29.3459 7.85967 29.6905 7.86132C29.9786 7.85648 30.2642 7.9155 30.5267 8.03414C30.764 8.14424 30.9721 8.30848 31.1344 8.51361C31.3019 8.73568 31.4163 8.99311 31.4689 9.26621C31.5304 9.59789 31.5304 9.93802 31.4689 10.2697" fill="white"/>
<path d="M39.9649 6.22781H37.4506C37.4021 6.22585 37.3544 6.24016 37.315 6.26844C37.2756 6.29672 37.2468 6.33739 37.2331 6.38393L35.5272 14.8355L35.5718 15.0027C35.6176 15.0488 35.6797 15.0749 35.7447 15.0752H38.2645C38.3139 15.0779 38.3627 15.0632 38.4025 15.0337C38.4422 15.0042 38.4703 14.9617 38.4819 14.9136L40.1879 6.46195L40.1433 6.30029C40.1206 6.27596 40.0929 6.25687 40.0621 6.24435C40.0313 6.23183 39.9981 6.22619 39.9649 6.22781Z" fill="white"/>
<path d="M3.3209 14.3058C3.57735 13.1908 4.05122 10.6319 4.06794 10.565H7.02823C10.4289 10.565 12.5363 8.74761 12.5363 5.82077C12.5363 3.26188 10.7802 1.72876 7.83659 1.72876H2.78013C2.72919 1.73001 2.68013 1.74826 2.64073 1.78058C2.60134 1.8129 2.57388 1.85745 2.56271 1.90716L0.0038212 14.7295C-0.0023448 14.762 -0.00103632 14.7954 0.00765771 14.8273C0.0163517 14.8592 0.0322006 14.8886 0.0539935 14.9135C0.0752548 14.9388 0.101649 14.9594 0.131438 14.9738C0.161228 14.9882 0.193735 14.9962 0.226815 14.9971H1.22472H2.47908C2.67665 14.9963 2.86796 14.9277 3.02114 14.803C3.17431 14.6782 3.28012 14.5047 3.3209 14.3114V14.3058ZM7.12858 7.81661H4.61428C4.61428 7.73856 5.26097 4.60545 5.28327 4.47165H7.6136C8.72858 4.47165 9.34183 4.99012 9.34183 5.93228C9.34183 7.10859 8.53346 7.77758 7.11186 7.77758" fill="white"/>
<path d="M58.6244 5.17428C57.8744 5.14272 57.1258 5.26565 56.4252 5.53537C55.7246 5.80509 55.0869 6.21587 54.5516 6.74226C54.0163 7.26864 53.5949 7.89939 53.3135 8.59539C53.0321 9.29138 52.8967 10.0377 52.9157 10.7882C52.9157 13.5757 54.8223 15.3708 57.7715 15.3708C61.083 15.3708 63.4858 13.0126 63.4858 9.75689C63.4858 6.96942 61.5791 5.17428 58.6244 5.17428ZM57.9666 12.4942C56.7178 12.4942 55.9708 11.7917 55.9708 10.6098C55.9532 10.2772 56.0041 9.94446 56.1205 9.63231C56.2368 9.32017 56.4161 9.03528 56.6472 8.79533C56.8782 8.55537 57.1562 8.36548 57.4637 8.23742C57.7712 8.10937 58.1018 8.04591 58.4349 8.05096C59.6837 8.05096 60.4307 8.75898 60.4307 9.93529C60.4483 10.2679 60.3974 10.6007 60.281 10.9128C60.1646 11.2249 59.9854 11.5098 59.7543 11.7498C59.5232 11.9897 59.2453 12.1796 58.9378 12.3077C58.6302 12.4357 58.2997 12.4992 57.9666 12.4942Z" fill="white"/>
<path d="M53.2668 1.82924C53.2474 1.80489 53.2229 1.78525 53.1949 1.77174C53.1669 1.75822 53.1362 1.75121 53.1051 1.75122H50.6633C50.6127 1.7517 50.5639 1.76977 50.5253 1.80233C50.4866 1.83489 50.4605 1.8799 50.4514 1.92962C50.4514 1.92962 49.5093 6.59581 49.4535 6.91916C49.1095 6.35867 48.6211 5.90098 48.0395 5.59399C47.4579 5.287 46.8044 5.14201 46.1476 5.1742C43.1817 5.1742 41.0298 7.5603 41.0298 10.8495C41.0298 13.5534 42.6577 15.3708 45.0772 15.3708C45.6333 15.3775 46.1842 15.2638 46.6923 15.0377C47.2004 14.8116 47.6535 14.4783 48.0208 14.0606C47.9706 14.2948 47.926 14.5401 47.8702 14.8189C47.8655 14.8499 47.8674 14.8816 47.8757 14.9119C47.8841 14.9421 47.8988 14.9703 47.9188 14.9945C47.9388 15.0187 47.9637 15.0384 47.9918 15.0523C48.0199 15.0662 48.0507 15.0741 48.0821 15.0753H50.5183C50.5686 15.0738 50.6168 15.0554 50.6553 15.023C50.6938 14.9906 50.7201 14.9461 50.7302 14.8969L53.3169 2.00765C53.3226 1.97605 53.3211 1.94358 53.3124 1.91268C53.3037 1.88177 53.2881 1.85323 53.2668 1.82924ZM48.634 10.2697C48.5767 10.6057 48.4636 10.9298 48.2995 11.2286C48.1575 11.5125 47.9691 11.7706 47.742 11.9924C47.516 12.2049 47.2535 12.3749 46.9671 12.4941C46.433 12.7118 45.837 12.7238 45.2946 12.5275C45.071 12.4379 44.8695 12.301 44.7037 12.1262C44.5361 11.9447 44.4121 11.7273 44.3413 11.4906C44.255 11.215 44.221 10.9257 44.241 10.6377C44.2621 10.2673 44.347 9.90327 44.4918 9.5617C44.6262 9.23685 44.8147 8.93712 45.0493 8.67527C45.2862 8.42841 45.5657 8.22633 45.8744 8.07875C46.187 7.93391 46.5278 7.85967 46.8723 7.86132C47.1605 7.85535 47.4463 7.91442 47.7086 8.03414C47.9472 8.14201 48.1558 8.30663 48.3162 8.51361C48.4837 8.73568 48.5981 8.99311 48.6507 9.26621C48.7096 9.59812 48.7096 9.93779 48.6507 10.2697" fill="white"/>
<path d="M71.53 5.91566C70.3551 5.35371 69.0552 5.1041 67.7558 5.19093C65.6652 5.3749 64.461 6.62367 64.6227 8.45225C64.7174 9.56724 65.3474 10.3979 66.5516 11.0334L67.8784 11.7303C68.4359 12.0202 68.4694 12.154 68.4861 12.3268C68.5195 12.7171 68.068 12.8174 67.7948 12.8453C66.7521 12.8527 65.733 12.5351 64.8791 11.9366H64.7119L64.5781 12.0369L63.5133 13.8655C63.4871 13.9128 63.4795 13.968 63.4919 14.0206C63.5042 14.0731 63.5357 14.1192 63.5802 14.1498C64.8629 15.041 66.4171 15.4551 67.9732 15.3206C70.3035 15.1143 71.5467 13.8822 71.3739 11.9366C71.2736 10.7603 70.7105 10.0188 69.4283 9.37213L68.2297 8.77003C67.5328 8.38536 67.4938 8.285 67.477 8.10103C67.4603 7.91705 67.4436 7.6885 68.1126 7.63275C68.9444 7.61009 69.7681 7.80209 70.5042 8.19024H70.6715L70.7941 8.07316L71.6359 6.18325C71.648 6.15769 71.6549 6.12997 71.6561 6.10172C71.6573 6.07347 71.6528 6.04526 71.6429 6.01876C71.6331 5.99227 71.618 5.96802 71.5986 5.94745C71.5792 5.92687 71.5559 5.91038 71.53 5.89896" fill="white"/>
<path d="M84.6982 1.99081C84.6789 1.95262 84.6494 1.92046 84.613 1.89785C84.5767 1.87525 84.5348 1.86303 84.492 1.86257H81.0466C81.0084 1.86208 80.9706 1.871 80.9366 1.8885C80.9026 1.90599 80.8734 1.93155 80.8515 1.96295C80.8515 1.96295 77.4285 6.81312 77.1888 7.28142C77.1275 6.841 75.4439 2.04097 75.4439 2.04097C75.4305 1.99184 75.4015 1.9484 75.3613 1.91721C75.3211 1.88603 75.2718 1.8688 75.2209 1.86815H72.2215C72.1843 1.869 72.1478 1.87853 72.1149 1.89595C72.082 1.91336 72.0536 1.9382 72.032 1.96849C72.0103 1.99879 71.996 2.03369 71.9902 2.07047C71.9844 2.10725 71.9873 2.14486 71.9985 2.18034L75.1986 10.2807L74.2229 14.9804C74.2154 15.0146 74.216 15.05 74.2247 15.0839C74.2335 15.1178 74.25 15.1492 74.2731 15.1755C74.2936 15.2035 74.3204 15.2263 74.3515 15.2418C74.3825 15.2573 74.4168 15.2652 74.4515 15.2647H76.8933C77.0502 15.263 77.2014 15.2062 77.3206 15.1043C77.4398 15.0024 77.5195 14.8619 77.5456 14.7072L78.3986 10.3476L84.6815 2.22495C84.7036 2.18785 84.7153 2.1455 84.7153 2.10232C84.7153 2.05914 84.7036 2.01675 84.6815 1.97965" fill="white"/>
<path d="M92.0179 5.66462C91.9986 5.64027 91.974 5.6206 91.946 5.60708C91.918 5.59357 91.8873 5.58658 91.8562 5.5866H89.5036C89.4553 5.58679 89.4085 5.60344 89.371 5.63386C89.3335 5.66428 89.3075 5.70662 89.2973 5.75384C89.2973 5.75384 89.2025 6.21099 89.1468 6.52876C88.8694 6.20218 88.5289 5.93504 88.1457 5.74343C87.7625 5.55182 87.3445 5.43969 86.9168 5.41378C86.1571 5.36313 85.3956 5.48116 84.6868 5.75942C83.5381 6.20482 82.5523 6.98981 81.8611 8.00974C81.1698 9.02967 80.8059 10.2361 80.8179 11.4681C80.7958 11.9578 80.874 12.4468 81.0475 12.9052C81.2211 13.3636 81.4864 13.7818 81.8272 14.1341C82.168 14.4864 82.5772 14.7654 83.0296 14.9541C83.482 15.1427 83.9681 15.237 84.4583 15.2312C85.0242 15.2655 85.5914 15.1876 86.1272 15.0019C86.6629 14.8163 87.1567 14.5267 87.5802 14.1497C87.5301 14.3838 87.4687 14.7072 87.4297 14.9023L87.4743 15.0751C87.4947 15.0979 87.5196 15.1161 87.5474 15.1286C87.5753 15.141 87.6055 15.1475 87.636 15.1476H90.0611C90.1094 15.1474 90.1562 15.1307 90.1937 15.1003C90.2312 15.0699 90.2572 15.0276 90.2673 14.9803L92.0904 5.81516C92.0959 5.78484 92.0948 5.75368 92.0871 5.72383C92.0794 5.69398 92.0653 5.66616 92.0458 5.64233L92.0179 5.66462ZM88.3719 10.3587C88.315 10.6802 88.2078 10.9906 88.0541 11.2786C87.9094 11.5492 87.7211 11.7941 87.4966 12.0033C87.2815 12.2052 87.0323 12.3676 86.7607 12.4828C86.245 12.6958 85.6681 12.7078 85.144 12.5162C84.9322 12.4304 84.7419 12.299 84.5865 12.1316C84.4259 11.9575 84.3059 11.7499 84.2353 11.5239C84.1562 11.2622 84.126 10.9882 84.1461 10.7155C84.161 10.3604 84.2403 10.0109 84.3802 9.68416C84.5154 9.3731 84.7041 9.08817 84.9377 8.84234C85.1627 8.60911 85.4293 8.42003 85.7238 8.28485C86.0232 8.14896 86.3483 8.07864 86.6771 8.07858C86.9513 8.07501 87.2231 8.13012 87.4743 8.24024C87.7073 8.34996 87.9105 8.51413 88.0667 8.71886C88.2229 8.92358 88.3276 9.16289 88.3719 9.41657C88.4307 9.73349 88.4307 10.0585 88.3719 10.3754" fill="white"/>
<path d="M18.3622 5.16858C17.6168 5.1436 16.8742 5.2723 16.1807 5.54665C15.4872 5.821 14.8575 6.23511 14.331 6.76327C13.8044 7.29143 13.3921 7.9223 13.1198 8.61663C12.8475 9.31097 12.7211 10.0539 12.7482 10.7992C12.7482 13.5867 14.6381 15.3595 17.6876 15.3595C19.0193 15.3753 20.3222 14.9715 21.4117 14.2055C21.4366 14.1876 21.4575 14.1646 21.4729 14.138C21.4883 14.1114 21.4979 14.0819 21.501 14.0514C21.5042 14.0208 21.5008 13.99 21.4912 13.9608C21.4816 13.9316 21.4659 13.9048 21.4451 13.8822L19.9511 12.3379C19.9182 12.3067 19.8765 12.2862 19.8317 12.2792C19.7869 12.2723 19.741 12.2791 19.7002 12.2989C19.1043 12.6331 18.4322 12.8078 17.7489 12.8062C16.3496 12.8062 15.519 12.1651 15.519 11.0557H22.3483C22.3973 11.0558 22.4448 11.0393 22.4833 11.0089C22.5217 10.9786 22.5488 10.9361 22.5601 10.8884C22.7077 10.3217 22.79 9.74002 22.8054 9.15463C22.8054 6.70724 21.0995 5.19086 18.3455 5.19086L18.3622 5.16858ZM15.8089 8.9651C15.9896 8.46152 16.3282 8.02984 16.7743 7.73446C17.2204 7.43908 17.75 7.29584 18.2841 7.32607C19.5162 7.32607 20.135 7.88356 20.174 8.99855H15.8089" fill="white"/>
<path d="M170.831 0.591553H100.291C99.9718 0.592182 99.6627 0.703726 99.4166 0.907116C99.1705 1.11051 99.0027 1.3931 98.9419 1.70654L97.2026 9.91282C96.9077 11.2997 96.9265 12.7349 97.2575 14.1135C97.5885 15.4922 98.2233 16.7795 99.1157 17.8813C100.008 18.9831 101.135 19.8716 102.415 20.4818C103.695 21.092 105.095 21.4086 106.513 21.4084H166.722C167.041 21.4067 167.35 21.2947 167.595 21.0915C167.841 20.8883 168.009 20.6063 168.071 20.2934L171.974 2.05776C172.01 1.88453 172.009 1.70538 171.969 1.53283C171.929 1.36029 171.852 1.19853 171.743 1.05887C171.634 0.919215 171.496 0.80501 171.339 0.724291C171.181 0.643571 171.008 0.598272 170.831 0.591553Z" fill="white"/>
<path d="M147.517 7.91692V7.88905C147.517 7.87222 147.514 7.85551 147.507 7.83995C147.501 7.8244 147.491 7.81028 147.479 7.79837C147.467 7.78647 147.453 7.77702 147.438 7.77057C147.422 7.76413 147.405 7.76081 147.389 7.76081H145.811L146.24 5.53084V5.50297C146.24 5.46896 146.227 5.43633 146.203 5.41229C146.179 5.38824 146.146 5.37476 146.112 5.37476H143.759C143.729 5.37535 143.7 5.38615 143.677 5.40538C143.654 5.42461 143.637 5.45115 143.631 5.48068L143.196 7.7441H142.026C141.995 7.7447 141.966 7.75549 141.943 7.77473C141.92 7.79396 141.904 7.82049 141.897 7.85003L141.557 9.59498C141.557 9.62899 141.571 9.66158 141.595 9.68563C141.619 9.70968 141.651 9.72319 141.685 9.72319H142.8L142.21 12.8229C142.156 13.0984 142.128 13.3784 142.126 13.6591C142.126 14.8243 142.711 15.6215 144.256 15.627C145.024 15.6102 145.775 15.3951 146.435 15.0026L146.491 14.8967L146.19 13.3859C146.184 13.3564 146.168 13.3299 146.144 13.3106C146.121 13.2914 146.092 13.2806 146.062 13.28H146.012C145.836 13.3606 145.647 13.406 145.454 13.4138C145.29 13.4268 145.128 13.3792 144.997 13.28C144.947 13.2308 144.908 13.1715 144.883 13.1061C144.858 13.0407 144.848 12.9708 144.852 12.9009C144.847 12.8341 144.847 12.767 144.852 12.7002L145.41 9.7399H147.043C147.073 9.73931 147.102 9.72854 147.126 9.70931C147.149 9.69008 147.165 9.66351 147.171 9.63398L147.517 7.91692Z" fill="#004ADD"/>
<path d="M136.835 4.55535V4.5219C136.835 4.47311 136.816 4.42632 136.781 4.39181C136.747 4.35731 136.7 4.33792 136.651 4.33792H134.421C134.378 4.33719 134.335 4.35194 134.302 4.3795C134.268 4.40706 134.245 4.44565 134.237 4.48845L133.457 8.46338H133.312C133.294 8.4167 133.271 8.37189 133.245 8.32958C133.18 8.21802 133.097 8.11812 132.999 8.0341C132.598 7.71778 132.094 7.56095 131.583 7.59369C129.353 7.59369 127.358 9.56163 127.218 12.2878C127.218 12.3825 127.218 12.4717 127.218 12.5609C127.218 14.501 128.333 15.6829 130.112 15.6885C130.557 15.6978 131 15.6144 131.412 15.4436C131.823 15.2727 132.195 15.0182 132.503 14.6961C132.557 14.6377 132.607 14.5763 132.654 14.5122H132.799L133.011 15.3707C133.019 15.4115 133.042 15.4481 133.074 15.4745C133.107 15.5008 133.147 15.5154 133.189 15.5157H134.594C134.636 15.5141 134.677 15.4984 134.709 15.4711C134.741 15.4439 134.764 15.4065 134.772 15.3651L136.835 4.55535ZM133.05 11.2453C132.983 12.5665 132.186 13.5254 131.093 13.5254C130.923 13.53 130.754 13.4958 130.6 13.4252C130.445 13.3547 130.309 13.2498 130.201 13.1184C129.981 12.8124 129.871 12.4412 129.889 12.0648C129.886 12.0184 129.886 11.9718 129.889 11.9254C129.956 10.6376 130.769 9.69545 131.823 9.69545C131.994 9.68486 132.164 9.71353 132.322 9.77926C132.479 9.84498 132.62 9.946 132.732 10.0745C132.958 10.3672 133.07 10.7313 133.05 11.1003C133.053 11.1523 133.053 11.2044 133.05 11.2564V11.2453Z" fill="#004ADD"/>
<path d="M164.297 8.17887C163.29 7.73805 162.195 7.53215 161.097 7.57677C158.789 7.57677 157.451 8.76981 157.367 10.3642C157.365 10.4107 157.365 10.4572 157.367 10.5036C157.357 10.8634 157.455 11.2179 157.647 11.5219C157.84 11.8258 158.119 12.0653 158.449 12.2096C159.039 12.4619 159.646 12.6706 160.266 12.834C160.595 12.951 160.824 13.0904 160.824 13.3246C160.824 13.6033 160.534 13.8486 159.792 13.843C159.025 13.8107 158.279 13.5843 157.624 13.1852H157.54C157.512 13.1856 157.484 13.1935 157.459 13.2082C157.435 13.2229 157.415 13.2438 157.401 13.2688L156.464 14.7684L156.436 14.8577C156.438 14.8846 156.445 14.9108 156.459 14.9341C156.472 14.9574 156.492 14.9771 156.514 14.9915C157.468 15.5192 158.554 15.7629 159.642 15.6939C162.429 15.6939 163.6 14.4618 163.689 12.9064V12.7503C163.699 12.3863 163.598 12.0279 163.398 11.7231C163.199 11.4183 162.912 11.1815 162.574 11.0444C161.968 10.7985 161.344 10.6009 160.707 10.4535C160.372 10.3475 160.149 10.2193 160.149 9.98515C160.149 9.64508 160.512 9.47784 161.069 9.47784C161.832 9.48605 162.58 9.69362 163.238 10.0799H163.321C163.35 10.0796 163.378 10.0716 163.402 10.0569C163.427 10.0422 163.447 10.0213 163.461 9.99631L164.381 8.42975V8.34057C164.385 8.30826 164.38 8.27528 164.365 8.24628C164.35 8.21728 164.326 8.19369 164.297 8.17887Z" fill="#004ADD"/>
<path d="M141.412 5.04601C141.417 4.88437 141.388 4.72346 141.327 4.57372C141.266 4.42397 141.174 4.28872 141.058 4.17676C140.941 4.0648 140.802 3.97863 140.65 3.92381C140.498 3.86899 140.336 3.84674 140.174 3.85854C140.011 3.86115 139.848 3.8817 139.689 3.91986C139.392 3.9962 139.119 4.14983 138.9 4.3652C138.681 4.58057 138.522 4.85005 138.441 5.14635C138.406 5.2813 138.388 5.4197 138.385 5.55889C138.378 5.71843 138.406 5.87749 138.467 6.02529C138.527 6.1731 138.619 6.30623 138.735 6.41565C138.851 6.52506 138.99 6.60823 139.141 6.65952C139.292 6.7108 139.452 6.729 139.611 6.71291C139.729 6.71232 139.847 6.70113 139.963 6.67946C140.324 6.62147 140.658 6.45055 140.916 6.19117C141.175 5.93179 141.344 5.59728 141.401 5.23557C141.41 5.17284 141.414 5.10939 141.412 5.04601Z" fill="#004ADD"/>
<path d="M156.08 10.8885C156.099 10.4421 156.025 9.99663 155.861 9.58104C155.697 9.16545 155.447 8.78914 155.128 8.47664C154.808 8.16414 154.427 7.92247 154.008 7.76746C153.589 7.61244 153.142 7.54753 152.696 7.57697C151.435 7.56412 150.217 8.03391 149.291 8.89006C148.366 9.74622 147.803 10.9239 147.717 12.1819C147.717 12.2543 147.717 12.3324 147.717 12.4049C147.717 14.3896 149.139 15.6662 151.124 15.6718C152.375 15.6906 153.585 15.2296 154.507 14.3836C155.429 13.5375 155.991 12.3707 156.08 11.1227C156.074 11.0446 156.08 10.9665 156.08 10.8885ZM153.504 11.2564C153.432 12.6502 152.618 13.6314 151.525 13.6314C151.351 13.6395 151.178 13.6069 151.02 13.5362C150.861 13.4656 150.721 13.3588 150.611 13.2244C150.381 12.9122 150.267 12.5299 150.287 12.1428V11.9923C150.36 10.6153 151.179 9.61742 152.289 9.61742C152.46 9.61261 152.63 9.64731 152.786 9.71885C152.941 9.7904 153.078 9.89686 153.186 10.03C153.416 10.3421 153.53 10.7244 153.51 11.1115C153.51 11.1599 153.509 11.2083 153.504 11.2564Z" fill="#004ADD"/>
<path d="M111.709 14.2947L110.739 12.5275C110.726 12.5062 110.708 12.4885 110.687 12.4758C110.665 12.4632 110.641 12.456 110.616 12.455H110.533C109.871 12.924 109.08 13.1754 108.269 13.1742C107.941 13.1974 107.611 13.1497 107.302 13.0343C106.994 12.9189 106.714 12.7385 106.481 12.5053C106.248 12.2721 106.068 11.9916 105.954 11.6828C105.839 11.374 105.792 11.0442 105.816 10.7156C105.818 10.4496 105.846 10.1845 105.9 9.92399C106.021 9.04376 106.45 8.23507 107.112 7.64192C107.774 7.04877 108.624 6.70967 109.512 6.68495C109.872 6.66542 110.233 6.71854 110.572 6.84114C110.911 6.96373 111.222 7.15331 111.486 7.39856L111.586 7.43756L111.687 7.39298L113.359 5.57555L113.398 5.48078L113.359 5.38599C113.069 5.06264 112.082 4.16507 109.953 4.16507C108.175 4.14309 106.458 4.81389 105.165 6.03545C103.873 7.25702 103.107 8.9335 103.029 10.7101C103.029 10.8271 103.029 10.9386 103.029 11.0501C103.029 13.6759 104.634 15.7163 107.728 15.7163C109.146 15.7448 110.533 15.2951 111.664 14.4397L111.709 14.3338V14.2947Z" fill="#004ADD"/>
<path d="M126.9 4.33769H124.397C124.371 4.3375 124.346 4.34477 124.324 4.35862C124.302 4.37247 124.285 4.3923 124.274 4.41575L123.053 6.27779V6.34469C123.053 6.38313 123.069 6.41999 123.096 6.44718C123.123 6.47436 123.16 6.48964 123.198 6.48964H124.559L124.659 6.44503L127.006 4.58299L127.056 4.48265C127.057 4.46238 127.054 4.44215 127.046 4.42337C127.038 4.40459 127.027 4.38773 127.012 4.37393C126.997 4.36013 126.979 4.34973 126.96 4.34348C126.941 4.33722 126.92 4.33524 126.9 4.33769Z" fill="#004ADD"/>
<path d="M126.493 10.7881C126.493 10.7044 126.493 10.6153 126.493 10.5316C126.493 8.68077 125.378 7.58248 123.477 7.5769C122.238 7.57994 121.048 8.05997 120.153 8.91739C119.258 9.7748 118.728 10.9438 118.672 12.1818C118.672 12.2599 118.672 12.3379 118.672 12.4104C118.672 14.2891 119.887 15.7219 122.201 15.7554C123.296 15.7744 124.371 15.4657 125.289 14.8689L125.345 14.7574V14.7073L124.871 13.2968C124.862 13.2683 124.844 13.2433 124.82 13.2254C124.796 13.2074 124.767 13.1973 124.737 13.1964H124.67C124.094 13.5088 123.452 13.6789 122.797 13.6926C122.372 13.7232 121.948 13.6114 121.593 13.3748C121.45 13.2473 121.338 13.0883 121.266 12.9103C121.195 12.7324 121.165 12.5403 121.18 12.3491C121.182 12.2983 121.203 12.2501 121.24 12.2147C121.276 12.1793 121.325 12.1595 121.376 12.1595H126.153C126.185 12.1595 126.216 12.1491 126.241 12.13C126.266 12.1109 126.284 12.084 126.293 12.0536C126.399 11.639 126.466 11.2153 126.493 10.7881ZM124.046 10.5651C124.041 10.6134 124.018 10.6581 123.982 10.691C123.946 10.7238 123.899 10.7424 123.851 10.7435H121.766C121.714 10.7435 121.664 10.7229 121.628 10.6863C121.591 10.6497 121.571 10.6001 121.571 10.5484V10.4703C121.687 10.1801 121.885 9.92951 122.14 9.74859C122.395 9.56766 122.697 9.46404 123.009 9.45011C123.148 9.4423 123.287 9.46243 123.419 9.50935C123.55 9.55627 123.67 9.62902 123.773 9.72327C123.949 9.92046 124.041 10.1785 124.029 10.4424L124.046 10.5651Z" fill="#004ADD"/>
<path d="M116.041 11.7471C116.094 11.2582 116.326 10.8063 116.693 10.4781C117.059 10.1499 117.533 9.96848 118.025 9.96866H118.41L118.834 7.73869H118.46C118.016 7.70971 117.571 7.79008 117.165 7.97279C116.758 8.1555 116.403 8.43499 116.13 8.78678H115.979L115.784 7.88364C115.776 7.84179 115.754 7.8039 115.722 7.77646C115.689 7.74901 115.648 7.73369 115.606 7.73311H114.335C114.292 7.73469 114.252 7.75037 114.219 7.77765C114.187 7.80492 114.165 7.84224 114.156 7.88364L112.735 15.237V15.276C112.735 15.3248 112.754 15.3716 112.789 15.4061C112.823 15.4406 112.87 15.46 112.919 15.46H115.149C115.191 15.4584 115.231 15.4427 115.264 15.4154C115.296 15.3881 115.318 15.3508 115.327 15.3095L116.041 11.7471Z" fill="#004ADD"/>
<path d="M140.475 7.76075H138.245C138.203 7.7604 138.162 7.77552 138.13 7.80325C138.098 7.83098 138.078 7.86941 138.072 7.91128L136.651 15.2702V15.3036C136.651 15.3524 136.67 15.3992 136.705 15.4337C136.739 15.4682 136.786 15.4876 136.835 15.4876H139.065C139.107 15.4868 139.147 15.4713 139.178 15.4438C139.21 15.4162 139.231 15.3785 139.238 15.3371L140.659 7.97818V7.94473C140.659 7.89594 140.64 7.84915 140.605 7.81465C140.571 7.78014 140.524 7.76075 140.475 7.76075Z" fill="#004ADD"/>
</svg>