<?xml version="1.0" encoding="utf-8"?>
<!-- Generator: Adobe Illustrator 27.9.0, SVG Export Plug-In . SVG Version: 6.00 Build 0)  -->
<svg version="1.1" id="Layer_1" xmlns="http://www.w3.org/2000/svg" xmlns:xlink="http://www.w3.org/1999/xlink" x="0px" y="0px"
	 viewBox="0 0 138 31.6" style="enable-background:new 0 0 138 31.6;" xml:space="preserve">
<style type="text/css">
	.st0{fill:#FFFFFF;}
</style>
<path class="st0" d="M80,9.5c-1,0-1.8,0.8-1.8,1.9c0,0.9,0.5,1.3,1.4,1.3c1,0,1.8-0.8,1.8-1.9C81.4,10,80.9,9.5,80,9.5z M76.8,9.9
	c0-0.1-0.1-0.1-0.2-0.1h-2.2c-0.1,0-0.2,0.1-0.2,0.2c0,0-0.8,4.4-0.9,4.6c-0.5-1-1.7-1.6-3-1.6c-2.7,0-4.7,2.2-4.7,5.2
	c0,2.5,1.5,4.2,3.7,4.2c1.1,0,2-0.5,2.7-1.2c-0.1,0.2-0.1,0.5-0.2,0.7c0,0.1,0,0.2,0.1,0.2c0,0.1,0.1,0.1,0.2,0.1h2.2
	c0.1,0,0.2-0.1,0.2-0.2L76.8,9.9L76.8,9.9z M72.5,17.7c-0.1,0.3-0.2,0.6-0.3,0.9c-0.2,0.2-0.3,0.5-0.5,0.7c-0.2,0.2-0.5,0.4-0.7,0.5
	c-0.5,0.2-1.1,0.2-1.5,0c-0.2-0.1-0.4-0.2-0.5-0.4c-0.2-0.2-0.2-0.4-0.3-0.6s-0.1-0.5-0.1-0.8c0-0.3,0.1-0.7,0.2-1
	c0.2-0.3,0.3-0.6,0.5-0.9c0.2-0.2,0.5-0.4,0.8-0.5c0.3-0.2,0.6-0.2,0.9-0.2c0.3,0,0.5,0.1,0.8,0.2c0.2,0.1,0.4,0.2,0.5,0.5
	c0.2,0.2,0.2,0.4,0.3,0.7C72.6,17.1,72.6,17.4,72.5,17.7L72.5,17.7z M80.4,14h-2.3c-0.1,0-0.2,0.1-0.2,0.2L76.3,22
	c0,0.1,0,0.1,0.1,0.2c0.1,0.1,0.1,0.1,0.2,0.1h2.3c0.1,0,0.2-0.1,0.2-0.2l1.5-7.8c0-0.1,0-0.1-0.1-0.2C80.5,14.1,80.4,14,80.4,14
	L80.4,14z M46.9,21.5c0.2-1.1,0.7-3.4,0.7-3.4h2.7c3.1,0,5.1-1.7,5.1-4.4c0-2.3-1.6-3.8-4.3-3.8h-4.6c-0.1,0-0.2,0.1-0.2,0.2
	l-2.3,11.9c0,0.1,0,0.2,0.1,0.2c0,0.1,0.1,0.1,0.2,0.1h2.1C46.1,22.2,46.7,22.2,46.9,21.5L46.9,21.5z M50.3,15.5H48
	c0-0.1,0.6-3,0.6-3.1h2.2c1,0,1.6,0.5,1.6,1.3C52.3,14.9,51.6,15.5,50.3,15.5L50.3,15.5z M97.4,13.1c-3,0-5.2,2.2-5.2,5.2
	c0,2.6,1.8,4.2,4.5,4.2c3,0,5.2-2.2,5.2-5.2C101.8,14.7,100.1,13.1,97.4,13.1L97.4,13.1z M96.8,19.8c-1.2,0-1.8-0.6-1.8-1.7
	c0-1.4,0.9-2.3,2.2-2.3c1.2,0,1.8,0.6,1.8,1.7C99.1,18.8,98.1,19.8,96.8,19.8z M92.5,9.9c0-0.1-0.1-0.1-0.2-0.1h-2.2
	c-0.1,0-0.2,0.1-0.2,0.2c0,0-0.8,4.4-0.9,4.6c-0.5-1-1.7-1.6-3-1.6c-2.7,0-4.7,2.2-4.7,5.2c0,2.5,1.5,4.2,3.7,4.2
	c1.1,0,2-0.5,2.7-1.2c-0.1,0.2-0.1,0.5-0.2,0.7c0,0.1,0,0.2,0.1,0.2c0,0.1,0.1,0.1,0.2,0.1H90c0.1,0,0.2-0.1,0.2-0.2L92.5,9.9
	C92.6,10,92.5,10,92.5,9.9L92.5,9.9z M88.3,17.7c-0.1,0.3-0.2,0.6-0.3,0.9c-0.2,0.2-0.3,0.5-0.5,0.7c-0.2,0.2-0.5,0.4-0.7,0.5
	c-0.5,0.2-1.1,0.2-1.5,0c-0.2-0.1-0.4-0.2-0.5-0.4c-0.2-0.2-0.2-0.4-0.3-0.6c-0.1-0.2-0.1-0.5-0.1-0.8c0-0.3,0.1-0.7,0.2-1
	c0.2-0.3,0.3-0.6,0.5-0.9c0.2-0.2,0.5-0.4,0.8-0.5c0.3-0.2,0.6-0.2,0.9-0.2c0.3,0,0.5,0.1,0.8,0.2c0.2,0.1,0.4,0.2,0.5,0.5
	c0.2,0.2,0.2,0.4,0.3,0.7C88.3,17.1,88.3,17.4,88.3,17.7L88.3,17.7z M109.2,13.8c-1.2-0.5-2.4-0.8-3.5-0.7c-1.9,0.2-3,1.3-2.8,3
	c0.1,1,0.7,1.8,1.8,2.4l1.2,0.6c0.5,0.2,0.5,0.4,0.5,0.5c0,0.4-0.4,0.5-0.6,0.5c-0.8,0.1-1.7-0.2-2.7-0.9H103
	c-0.1,0-0.1,0.1-0.2,0.1l-1,1.7c-0.1,0.1,0,0.2,0.1,0.2c1.2,0.9,2.6,1.2,4,1.1c2.2-0.2,3.2-1.3,3.1-3.1c-0.1-1.1-0.6-1.8-1.8-2.4
	l-1.1-0.5c-0.6-0.4-0.7-0.5-0.7-0.6c0-0.1,0-0.4,0.6-0.5c0.6-0.1,1.4,0.2,2.2,0.5h0.2c0.1,0,0.1-0.1,0.1-0.1l0.8-1.8
	C109.3,13.9,109.3,13.8,109.2,13.8L109.2,13.8z M121.3,10.2c0-0.1-0.1-0.2-0.2-0.2H118c-0.1,0-0.2,0-0.2,0.1c0,0-3.1,4.5-3.4,4.9
	c-0.1-0.4-1.6-4.8-1.6-4.8c0-0.1-0.1-0.2-0.2-0.2h-2.8c-0.1,0-0.2,0-0.2,0.1c-0.1,0.1-0.1,0.2,0,0.2l2.9,7.5l-0.8,4.4
	c0,0.1,0,0.2,0.1,0.2c0.1,0.1,0.1,0.1,0.2,0.1h2.2c0.3,0,0.5-0.2,0.6-0.5l0.8-4.1l5.8-7.6C121.3,10.4,121.3,10.3,121.3,10.2
	L121.3,10.2z M127.9,13.6c0-0.1-0.1-0.1-0.2-0.1h-2.2c-0.1,0-0.2,0.1-0.2,0.2c0,0-0.1,0.4-0.2,0.7c-0.5-0.6-1.2-0.9-2-1
	c-0.7-0.1-1.4,0.1-2,0.3c-2.2,0.9-3.5,3-3.5,5.3c0,2,1.3,3.4,3.3,3.5c1.1,0.1,2-0.3,2.8-1c-0.1,0.2-0.1,0.5-0.2,0.7
	c0,0.1,0,0.1,0.1,0.2c0,0.1,0.1,0.1,0.2,0.1h2.2c0.1,0,0.2-0.1,0.2-0.2l1.7-8.5C127.9,13.8,127.9,13.7,127.9,13.6L127.9,13.6z
	 M124.6,18c-0.1,0.3-0.2,0.6-0.3,0.9c-0.2,0.2-0.3,0.5-0.5,0.7L123,20c-0.5,0.2-1.1,0.2-1.5,0c-0.2-0.1-0.4-0.2-0.5-0.4
	c-0.2-0.2-0.2-0.3-0.3-0.5c-0.1-0.2-0.1-0.5-0.1-0.8s0.1-0.6,0.2-0.9c0.2-0.3,0.3-0.5,0.5-0.8c0.2-0.2,0.5-0.4,0.7-0.5
	c0.3-0.2,0.5-0.2,0.8-0.2c0.2,0,0.5,0.1,0.7,0.2c0.2,0.1,0.4,0.2,0.5,0.4c0.2,0.2,0.2,0.4,0.3,0.7C124.6,17.3,124.6,17.7,124.6,18
	L124.6,18z M60.6,13.1c-3,0-5.1,2.2-5.1,5.2c0,2.6,1.8,4.2,4.5,4.2c1.2,0,2.3-0.3,3.4-1.1c0.1-0.1,0.1-0.2,0-0.3L62,19.7
	c-0.1-0.1-0.2-0.1-0.2,0c-0.6,0.3-1.2,0.5-1.8,0.5c-1.3,0-2-0.6-2-1.6h6.2c0.1,0,0.2-0.1,0.2-0.2c0.2-0.6,0.2-1.1,0.2-1.6
	C64.6,14.5,63.1,13.1,60.6,13.1L60.6,13.1z M58.3,16.6c0.4-1,1.2-1.5,2.2-1.5c1.2,0,1.7,0.5,1.7,1.6C62.1,16.6,58.5,16.6,58.3,16.6
	L58.3,16.6z M28.4,2.3H10.5c-0.3,0-0.5,0.2-0.5,0.5v2.6c0,2.9,2,4.4,5.6,4.4h12.8c1.4,0,2.5,1.1,2.5,2.5c0,1.4-1.1,2.5-2.5,2.5H14
	c-0.2,0-0.4,0.2-0.5,0.3l-3.3,13.7c0,0.2,0,0.3,0.1,0.4c0.1,0.1,0.2,0.2,0.4,0.2h4.5c1.7,0,2.5-1.4,2.7-2.2l1.3-4.9h9.1
	c5.4,0,9.8-4.4,9.8-10C38.2,6.7,33.8,2.3,28.4,2.3L28.4,2.3z"/>
</svg>
