<?xml version="1.0" encoding="utf-8"?>
<!-- Generator: Adobe Illustrator 27.9.0, SVG Export Plug-In . SVG Version: 6.00 Build 0)  -->
<svg version="1.1" id="Layer_1" xmlns="http://www.w3.org/2000/svg" xmlns:xlink="http://www.w3.org/1999/xlink" x="0px" y="0px"
	 viewBox="0 0 180 137" style="enable-background:new 0 0 180 137;" xml:space="preserve">
<style type="text/css">
	.st0{fill:#FFFFFF;}
	.st1{fill:#F2F7FF;}
	.st2{fill:none;stroke:#6D99F2;stroke-linecap:round;stroke-linejoin:round;}
	.st3{fill:none;stroke:#100423;stroke-linecap:round;stroke-linejoin:round;}
	.st4{opacity:0.16;fill:#40004D;enable-background:new    ;}
	.st5{fill:#FA0050;}
	.st6{opacity:0.28;fill:#40004D;enable-background:new    ;}
	.st7{fill:#004ADD;}
	.st8{fill:#004ADE;}
</style>
<path class="st0" d="M147.2,48.5H44.9c-3.7,0-7.1,2-8.9,5.2L5.1,109.4h161.5c6.4,0,10.5-6.9,7.4-12.6L147.2,48.5L147.2,48.5z"/>
<path class="st1" d="M29.2,97.7h12.9c1.4,0,5.4-0.1,5.8-3.3c0.4-2.8-2.9-3.3-4.3-3.3l-28.3,0L5.1,109.4h17.5l6-11.4
	C28.8,97.8,29,97.7,29.2,97.7L29.2,97.7z"/>
<path class="st1" d="M67.5,62.3c0.9,0,1.7-0.6,2-1.4l4.2-12.3H44.9c-3.7,0-7.1,2-8.9,5.2l-4.8,8.5L67.5,62.3L67.5,62.3z"/>
<path class="st1" d="M147.2,48.5H78.3l-4,12.6c-1.1,3.2-4.2,5.4-7.6,5.4H29l-9.9,17.8h26.5l0.3,0c5.5,0,12.2,4.3,10,10.8
	c-2.1,6-8,9.1-13.5,9.1h-9.3l-3,5.2h59.1v-19c0-4.9,4-8.9,8.9-8.9h20.7c1.7,0,1.9-1.2,1.8-1.8l-0.7-3.9c-0.8-4.3-1.5-8.3-1.9-10.1
	c-0.8-4,0.5-6.7,1.8-8.2c1.8-2.2,4.9-3.6,8.2-3.6c4.9,0,9.3,3.3,11.1,8.2c0.7,1.9,1.2,3.6,1.6,4.8l20.5,6.9L147.2,48.5L147.2,48.5z"
	/>
<path class="st1" d="M166.3,82.8l-29.5-10.1c-1.2-0.4-2.2-1.4-2.5-2.7c0.2,0.8-0.5-1.8-1.4-5.2c-0.6-2.3-3.4-3.4-4.8-3.2
	c-2.6,0.3-3.3,2.7-3.2,3.3c0.3,1.8,1,5.2,1.8,9.5l0.9,4.2c0.3,1.9,0.1,3.8-0.8,5.5c-1.5,2.7-4.2,4.2-7.1,4.2H97.2
	c-0.7,0-1.3,0.6-1.3,1.3v19.9h70.7c6.4,0,10.5-6.9,7.4-12.6L166.3,82.8L166.3,82.8z"/>
<path class="st2" d="M24.1,75.9h48.4c2.1,0,3.7,1.9,3.3,4l-3,15.3"/>
<path class="st2" d="M55.9,95.2h33.3"/>
<path class="st2" d="M96.8,48.5v12.4c0,1.9,1.5,3.4,3.4,3.4h17.5"/>
<path class="st2" d="M111.2,109.3l-0.5-7.9c-0.1-1.9,1.4-3.6,3.4-3.6h35c2.5,0,4.1-2.5,3.1-4.8l-7.9-17.5"/>
<path class="st2" d="M115.5,88.3l1.2,9.5"/>
<path class="st3" d="M29.2,97.7h12.9c1.4,0,5.4-0.1,5.8-3.3c0.4-2.8-2.9-3.3-4.3-3.3l-28.3,0L5.1,109.4h17.5l6-11.4
	C28.8,97.8,29,97.7,29.2,97.7L29.2,97.7z"/>
<path class="st3" d="M67.5,62.3c0.9,0,1.7-0.6,2-1.4l4.2-12.3H44.9c-3.7,0-7.1,2-8.9,5.2l-4.8,8.5L67.5,62.3L67.5,62.3z"/>
<path class="st3" d="M147.2,48.5H78.3l-4,12.6c-1.1,3.2-4.2,5.4-7.6,5.4H29l-9.9,17.8h26.5l0.3,0c5.5,0,12.2,4.3,10,10.8
	c-2.1,6-8,9.1-13.5,9.1h-9.3l-3,5.2h59.1v-19c0-4.9,4-8.9,8.9-8.9h20.7c1.8,0,1.9-1.2,1.8-1.8l-0.7-3.9c-0.8-4.3-1.5-8.3-1.9-10.1
	c-0.8-4,0.5-6.7,1.8-8.2c1.8-2.2,4.9-3.6,8.2-3.6c4.9,0,9.3,3.3,11.1,8.2c0.7,1.9,1.2,3.6,1.6,4.8l20.5,6.9L147.2,48.5L147.2,48.5z"
	/>
<path class="st3" d="M166.3,82.8l-29.5-10.1c-1.2-0.4-2.2-1.4-2.5-2.7c0,0-0.6-2.2-1.4-5.2c-0.7-2.3-3.4-3.4-4.8-3.2
	c-2.6,0.3-3.3,2.7-3.2,3.3c0.3,1.8,1,5.2,1.8,9.5l0.9,4.2c0.3,1.9,0.1,3.8-0.8,5.5c-1.5,2.7-4.2,4.2-7.1,4.2H97.2
	c-0.7,0-1.3,0.6-1.3,1.3v19.9h70.7c6.4,0,10.5-6.9,7.4-12.6L166.3,82.8L166.3,82.8z"/>
<path class="st4" d="M82.9,57.4c4.2,0,7.6-1.3,7.6-3s-3.4-3-7.6-3c-4.2,0-7.6,1.3-7.6,3S78.7,57.4,82.9,57.4z"/>
<path class="st4" d="M128.6,68.8c4.7,0,8.5-1.5,8.5-3.4c0-1.9-3.8-3.4-8.5-3.4c-4.7,0-8.5,1.5-8.5,3.4
	C120.1,67.3,123.9,68.8,128.6,68.8z"/>
<path class="st4" d="M37.3,98.4c6.1,0,11-1.9,11-4.2c0-2.3-4.9-4.2-11-4.2c-6.1,0-11,1.9-11,4.2C26.3,96.5,31.2,98.4,37.3,98.4z"/>
<path class="st5" d="M82.9,27.4c-5.6,0-10.2,4.5-10.2,10.1c0,7.6,10.2,16.9,10.2,16.9s10.2-9.3,10.2-16.9
	C93.1,31.9,88.6,27.4,82.9,27.4z M82.9,40.9c-1.9,0-3.4-1.5-3.4-3.4s1.5-3.4,3.4-3.4c1.9,0,3.4,1.5,3.4,3.4S84.8,40.9,82.9,40.9z"/>
<path class="st6" d="M82.9,31.6c-3.3,0-5.9,2.6-5.9,5.9c0,3.3,2.7,5.9,5.9,5.9c3.3,0,5.9-2.7,5.9-5.9C88.9,34.3,86.2,31.6,82.9,31.6
	z M82.9,40.9c-1.9,0-3.4-1.5-3.4-3.4c0-1.9,1.5-3.4,3.4-3.4c1.9,0,3.4,1.5,3.4,3.4C86.3,39.4,84.8,40.9,82.9,40.9z"/>
<path class="st3" d="M82.9,27.4c-5.6,0-10.2,4.5-10.2,10.1c0,7.6,10.2,16.9,10.2,16.9s10.2-9.3,10.2-16.9
	C93.1,31.9,88.6,27.4,82.9,27.4z M82.9,40.9c-1.9,0-3.4-1.5-3.4-3.4s1.5-3.4,3.4-3.4c1.9,0,3.4,1.5,3.4,3.4S84.8,40.9,82.9,40.9z"/>
<path class="st7" d="M37.3,53.6c-8.4,0-15.2,6.8-15.2,15.2c0,11.4,15.2,25.4,15.2,25.4s15.2-13.9,15.2-25.4
	C52.5,60.4,45.7,53.6,37.3,53.6L37.3,53.6z M37.3,73.9c-2.8,0-5.1-2.3-5.1-5.1c0-2.8,2.3-5.1,5.1-5.1c2.8,0,5.1,2.3,5.1,5.1
	C42.3,71.6,40.1,73.9,37.3,73.9L37.3,73.9z"/>
<path class="st4" d="M37.3,60c-4.9,0-8.9,4-8.9,8.9c0,4.9,4,8.9,8.9,8.9s8.9-4,8.9-8.9C46.2,63.9,42.2,60,37.3,60z M37.3,73.9
	c-2.8,0-5.1-2.3-5.1-5.1c0-2.8,2.3-5.1,5.1-5.1s5.1,2.3,5.1,5.1C42.3,71.6,40.1,73.9,37.3,73.9z"/>
<path class="st3" d="M37.3,53.6c-8.4,0-15.2,6.8-15.2,15.2c0,11.4,15.2,25.4,15.2,25.4s15.2-13.9,15.2-25.4
	C52.5,60.4,45.7,53.6,37.3,53.6L37.3,53.6z M37.3,73.9c-2.8,0-5.1-2.3-5.1-5.1c0-2.8,2.3-5.1,5.1-5.1c2.8,0,5.1,2.3,5.1,5.1
	C42.3,71.6,40.1,73.9,37.3,73.9L37.3,73.9z"/>
<path class="st8" d="M128.6,35c-6.3,0-11.4,5.1-11.4,11.4c0,8.6,11.4,19,11.4,19S140,55,140,46.4C140,40.1,134.9,35,128.6,35z
	 M128.6,50.2c-2.1,0-3.8-1.7-3.8-3.8s1.7-3.8,3.8-3.8c2.1,0,3.8,1.7,3.8,3.8S130.7,50.2,128.6,50.2z"/>
<path class="st4" d="M128.6,39.8c-3.7,0-6.7,3-6.7,6.7s3,6.7,6.7,6.7c3.7,0,6.7-3,6.7-6.7S132.3,39.8,128.6,39.8L128.6,39.8z
	 M128.6,50.2c-2.1,0-3.8-1.7-3.8-3.8s1.7-3.8,3.8-3.8c2.1,0,3.8,1.7,3.8,3.8S130.7,50.2,128.6,50.2z"/>
<path class="st3" d="M128.6,35c-6.3,0-11.4,5.1-11.4,11.4c0,8.6,11.4,19,11.4,19S140,55,140,46.4C140,40.1,134.9,35,128.6,35
	L128.6,35z M128.6,50.2c-2.1,0-3.8-1.7-3.8-3.8s1.7-3.8,3.8-3.8c2.1,0,3.8,1.7,3.8,3.8S130.7,50.2,128.6,50.2z"/>
</svg>
