<?xml version="1.0" encoding="utf-8"?>
<!-- Generator: Adobe Illustrator 27.9.0, SVG Export Plug-In . SVG Version: 6.00 Build 0)  -->
<svg version="1.1" id="Layer_1" xmlns="http://www.w3.org/2000/svg" xmlns:xlink="http://www.w3.org/1999/xlink" x="0px" y="0px"
	 viewBox="0 0 137 137" style="enable-background:new 0 0 137 137;" xml:space="preserve">
<style type="text/css">
	.st0{fill:#F2F7FF;}
	.st1{fill:#F2F7FF;stroke:#100423;stroke-linecap:round;stroke-linejoin:round;}
	.st2{fill:#6D99F2;stroke:#100423;stroke-linecap:round;stroke-linejoin:round;}
	.st3{opacity:0.16;fill:#40004D;enable-background:new    ;}
	.st4{fill:#6D99F2;}
	.st5{fill:#5FBBD5;}
	.st6{fill:#72E6FF;}
	.st7{fill:none;stroke:#100423;stroke-linecap:round;stroke-linejoin:round;}
	.st8{fill:#FA0050;}
	.st9{opacity:0.25;fill:#40004D;enable-background:new    ;}
	.st10{fill:#FFFFFF;stroke:#100423;stroke-linecap:round;stroke-linejoin:round;}
	.st11{fill:#FFFFFF;}
	.st12{fill:#DFEAFF;}
	.st13{fill:none;stroke:#004ADD;stroke-width:2;stroke-linecap:round;stroke-linejoin:round;}
	.st14{fill:none;stroke:#6D99F2;stroke-width:2;stroke-linecap:round;stroke-linejoin:round;}
</style>
<path class="st0" d="M90.4,54.9H61.9v44.6h28.6V54.9z"/>
<path class="st1" d="M58.2,36.5h22.6c1.7,0,3,1.3,3,3v2H55.2v-2C55.2,37.8,56.5,36.5,58.2,36.5z"/>
<path class="st1" d="M61.9,54.9h28.6l-6.7-13.4H55.2L61.9,54.9z"/>
<path class="st2" d="M61.9,54.9H48.4l6.7-13.4L61.9,54.9z"/>
<path class="st3" d="M57.7,46.5l-9.2,8.4l6.7-13.4L57.7,46.5z"/>
<path class="st4" d="M61.9,54.9H48.4v44.6h13.4V54.9z"/>
<path class="st4" d="M76.1,51.1h0.4c1.9,0,3.1-2,2.2-3.6l-0.1-0.3c-0.8-1.7-2.6-2.8-4.5-2.8h-0.4c-1.9,0-3.1,2-2.2,3.6l0.1,0.3
	C72.5,50,74.2,51.1,76.1,51.1z"/>
<path class="st5" d="M48.4,68.8c0,0,1.5,0,3.4,0s3.4,1.9,3.4,7.1c0,5.2,1.5,7.1,3.4,7.1s3.4,0,3.4,0v16.4H48.4V68.8L48.4,68.8z"/>
<path class="st6" d="M90.4,83c0,0-3.2,0-7.1,0s-7.1-2.7-7.1-7.1c0-4.4-3.2-7.1-7.1-7.1s-7.1,0-7.1,0v30.7h28.6V83L90.4,83z"/>
<path class="st7" d="M90.4,54.9H61.9v44.6h28.6V54.9z"/>
<path class="st7" d="M61.9,54.9H48.4v44.6h13.4V54.9z"/>
<path class="st3" d="M54.3,50.3c-0.2-1.4-0.8-2.7-1.7-3.8l-4.2,8.4v44.6H61L54.3,50.3z"/>
<path class="st3" d="M79.8,58c-1.5,6.5,1,15.5,10,17.7s15.3-5.1,16.7-11.3c1.1-4.9-0.7-9.2-4.9-10.3c-1.9-0.5-4.4,0.2-6.7-0.4
	c-2.5-0.6-4.4-2.3-6.6-2.7C84.3,50.3,80.8,53.7,79.8,58L79.8,58z"/>
<path class="st8" d="M85.3,56.9c-2.1,6.4-0.3,15.6,8.4,18.5c8.7,2.9,15.7-3.7,17.7-9.8c1.6-4.8,0.1-9.2-4-10.7
	c-1.8-0.7-4.4-0.2-6.6-1c-2.5-0.8-4.2-2.7-6.4-3.3C90.5,49.6,86.7,52.7,85.3,56.9L85.3,56.9z"/>
<path class="st9" d="M92,72.8c8.7,2.9,15.7-3.7,17.7-9.8c0.8-2.4,0.8-4.7,0.1-6.6c2.2,2.1,2.8,5.5,1.6,9.2c-2,6.1-9,12.7-17.7,9.8
	c-3.8-1.3-6.2-3.7-7.6-6.6C87.5,70.5,89.5,72,92,72.8L92,72.8z"/>
<path class="st9" d="M104.1,57.7c0.2-0.7-1.4-1.9-3.7-2.7s-4.3-0.8-4.6-0.1c-0.2,0.7,1.4,1.9,3.7,2.7S103.9,58.5,104.1,57.7z"/>
<path class="st7" d="M85.3,56.9c-2.1,6.4-0.3,15.6,8.4,18.5c8.7,2.9,15.7-3.7,17.7-9.8c1.6-4.8,0.1-9.2-4-10.7
	c-1.8-0.7-4.4-0.2-6.6-1c-2.5-0.8-4.2-2.7-6.4-3.3C90.5,49.6,86.7,52.7,85.3,56.9L85.3,56.9z"/>
<path class="st7" d="M103.2,51c-1.7,0.6-2.1,1.9-2.4,3c-0.4,1.1-0.7,2.2-0.7,2.2"/>
<path class="st0" d="M40.1,38.3L38,22.6L29,23.8l2.1,15.7c0.2,1.4-0.2,2.9-1.1,4L26.2,48c-1.3,1.6-1.9,3.7-1.6,5.8l7.4,54.1
	c0.1,1,1,2.2,2.5,2c2.2-0.3,19-2.6,21.1-2.9c1.7-0.2,2.3-1.6,2.1-2.6l-7.3-54.1c-0.3-2.1-1.4-3.9-3.1-5.1l-5-3.3
	C41,41,40.3,39.7,40.1,38.3L40.1,38.3z"/>
<path class="st10" d="M39.9,36.5L38,22.6l-8.9,1.2l1.9,13.9c0,0,1.2-0.4,4.4-0.9C38.6,36.4,39.8,36.5,39.9,36.5L39.9,36.5z"/>
<path class="st7" d="M40.1,38.3L38,22.6L29,23.8l2.1,15.7c0.2,1.4-0.2,2.9-1.1,4L26.2,48c-1.3,1.6-1.9,3.7-1.6,5.8l7.4,54.1
	c0.1,1,1,2.2,2.5,2c2.2-0.3,19-2.6,21.1-2.9c1.7-0.2,2.3-1.6,2.1-2.6l-7.3-54.1c-0.3-2.1-1.4-3.9-3.1-5.1l-5-3.3
	C41,41,40.3,39.7,40.1,38.3L40.1,38.3z"/>
<path class="st11" d="M27.6,20.9c-0.1-0.8,0.3-1.4,1-1.7c0.9-0.4,2-0.7,4.1-1c2.1-0.3,3.3-0.3,4.3-0.2c0.7,0.1,1.3,0.6,1.4,1.4
	l0.6,4.4c0.1,0.9-0.5,1.7-1.3,1.8l-7.9,1.1c-0.8,0.1-1.6-0.5-1.7-1.4L27.6,20.9L27.6,20.9z"/>
<path class="st11" d="M27.6,20.9c-0.1-0.8,0.3-1.4,1-1.7c0.9-0.4,2-0.7,4.1-1c2.1-0.3,3.3-0.3,4.3-0.2c0.7,0.1,1.3,0.6,1.4,1.4
	l0.6,4.4c0.1,0.9-0.5,1.7-1.3,1.8l-7.9,1.1c-0.8,0.1-1.6-0.5-1.7-1.4L27.6,20.9L27.6,20.9z"/>
<path class="st7" d="M31.6,26.5l-1.7,0.2c-0.8,0.1-1.6-0.5-1.7-1.4l-0.6-4.4c-0.1-0.8,0.3-1.4,1-1.7c0.9-0.4,2-0.7,4.1-1
	c2.1-0.3,3.3-0.3,4.3-0.2c0.7,0.1,1.3,0.6,1.4,1.4l0.6,4.4c0.1,0.9-0.5,1.6-1.3,1.8l-0.6,0.1"/>
<path class="st10" d="M29.7,62.1c-0.1-0.4,0.1-0.8,0.5-1c1.2-0.5,4-1.3,8.2-1.8c4.1-0.6,7.2-0.6,8.4-0.4c0.4,0.1,0.7,0.4,0.7,0.8
	L52.1,93c0.1,0.6-0.4,1-0.9,1c-1.4,0.1-4.2,0.3-7.9,0.8c-3.8,0.5-6.3,1-7.9,1.3c-0.5,0.1-1.1-0.2-1.1-0.8L29.7,62.1L29.7,62.1z"/>
<path class="st9" d="M29,44.7L26.2,48c-1.3,1.6-1.9,3.7-1.6,5.8l7.4,54.1c0.1,1,1,2.2,2.5,2l3.4-0.5L29,44.7L29,44.7z"/>
<path class="st3" d="M26.9,71.4h80.9c1.6-1.8,2.9-3.8,3.5-5.8c0.1-0.4,0.2-0.8,0.3-1.2c0-0.1,0-0.2,0.1-0.3c0.1-0.4,0.1-0.8,0.2-1.2
	c0,0,0,0,0,0c0-0.4,0-0.8,0-1.1c0-0.1,0-0.1,0-0.2c0-0.2,0-0.4-0.1-0.6H25.5L26.9,71.4L26.9,71.4z"/>
<path class="st12" d="M105.4,118.9H47.3v-55h67.2c2.6,0,4.6,2.3,4.2,4.8l-7,44.7C111.2,116.6,108.5,118.9,105.4,118.9z"/>
<path class="st4" d="M31.6,118.9h15.7v-55H22.5c-2.6,0-4.6,2.3-4.2,4.8l7,44.7C25.8,116.6,28.4,118.9,31.6,118.9L31.6,118.9z"/>
<path class="st3" d="M19.7,78.7h97.5l1.2-8.5H18.5L19.7,78.7z"/>
<path class="st7" d="M105.4,118.9H47.3v-55h67.2c2.6,0,4.6,2.3,4.2,4.8l-7,44.7C111.2,116.6,108.5,118.9,105.4,118.9z"/>
<path class="st7" d="M31.6,118.9h15.7v-55H22.5c-2.6,0-4.6,2.3-4.2,4.8l7,44.7C25.8,116.6,28.4,118.9,31.6,118.9L31.6,118.9z"/>
<path class="st0" d="M121.5,74.4h-106l1.4-7.1c0.4-2,2.1-3.4,4.2-3.4h94.8c2,0,3.8,1.4,4.2,3.4L121.5,74.4L121.5,74.4z"/>
<path class="st3" d="M48.5,67.3c-0.3-1.7-1.6-2.8-3.1-2.8H20.1c-1.5,0-2.8,1.2-3.1,2.8l-1.2,6.7h33.9L48.5,67.3L48.5,67.3z"/>
<path class="st7" d="M121.5,74.4h-106l1.4-7.1c0.4-2,2.1-3.4,4.2-3.4h94.8c2,0,3.8,1.4,4.2,3.4L121.5,74.4L121.5,74.4z"/>
<path class="st13" d="M30.8,99.5l1.4,12.7"/>
<path class="st13" d="M29,82.1l1.2,11.3"/>
<path class="st13" d="M39.7,99.5l0.5,12.7"/>
<path class="st13" d="M39,82.1l0.5,11.3"/>
<path class="st14" d="M60.5,99.5l-0.3,12.7"/>
<path class="st14" d="M60.9,82.1l-0.3,11.3"/>
<path class="st14" d="M74.9,99.5l-0.7,12.7"/>
<path class="st14" d="M75.9,82.1l-0.7,11.3"/>
<path class="st14" d="M89.4,99.5l-1.2,12.7"/>
<path class="st14" d="M91,82.1l-1,11.3"/>
<path class="st14" d="M102.8,99.5l-1.6,12.7"/>
<path class="st14" d="M104.9,82.1l-1.4,11.3"/>
</svg>
