<?xml version="1.0" encoding="utf-8"?>
<!-- Generator: Adobe Illustrator 27.9.0, SVG Export Plug-In . SVG Version: 6.00 Build 0)  -->
<svg version="1.1" id="Layer_1" xmlns="http://www.w3.org/2000/svg" xmlns:xlink="http://www.w3.org/1999/xlink" x="0px" y="0px"
	 viewBox="0 0 137 137" style="enable-background:new 0 0 137 137;" xml:space="preserve">
<style type="text/css">
	.st0{fill:#FFFFFF;stroke:#100423;stroke-linecap:round;stroke-linejoin:round;}
	.st1{fill:#FFFFFF;}
	.st2{fill:none;stroke:#100423;stroke-linecap:round;stroke-linejoin:round;}
	.st3{fill:#CAB8CD;}
	.st4{fill:#EA044E;stroke:#100423;stroke-linecap:round;stroke-linejoin:round;}
	.st5{fill:#F9B495;stroke:#100423;stroke-linecap:round;stroke-linejoin:round;}
	.st6{opacity:0.15;fill:#100423;enable-background:new    ;}
	.st7{fill:#8C4B46;}
	.st8{fill:#F9B495;}
	.st9{opacity:0.11;fill:#40004D;enable-background:new    ;}
</style>
<path class="st0" d="M38.9,116.6c-3.4-0.7-5.4-4.3-4.8-7.6L40,75.4c1-5.2,6.7-9.4,12.1-8.3s8.3,7,6.6,12.1l-11.9,32.4
	C45.8,114.7,42.3,117.2,38.9,116.6L38.9,116.6z"/>
<path class="st0" d="M98.4,116.6c3.4-0.7,5.4-4.3,4.8-7.6l-5.9-33.6c-1-5.2-6.7-9.4-12.1-8.3s-8.3,7-6.6,12.1l11.9,32.4
	C91.4,114.7,95,117.2,98.4,116.6L98.4,116.6z"/>
<path class="st1" d="M91.3,119.4H45.9c0,0-4-35.2-4-41s2.1-11,9.4-12.8c0,0,16.3-3.6,17.3-3.6c1,0,17.4,3.6,17.4,3.6
	c7.3,1.5,9.2,7.2,9.2,13.1S91.3,119.4,91.3,119.4L91.3,119.4z"/>
<path class="st2" d="M42,71.3c0,0,1.5-2.4,5.8-4.5c1-0.5,2.2-0.9,3.4-1.2c0,0,16.3-3.6,17.3-3.6c1,0,17.4,3.6,17.4,3.6
	c2.1,0.4,3.9,1.1,5.5,2.1c1.6,1,2.7,2.4,3.2,2.9"/>
<path class="st2" d="M94.1,88.4l-2.8,31H45.9l-3.5-31"/>
<path class="st3" d="M77,61.4c0,1.5-1.3,5.5-8.2,5.5s-8.2-4-8.2-5.5s3.7-2.7,8.2-2.7C73.3,58.7,77,59.9,77,61.4z"/>
<path class="st2" d="M77,61.4c0,1.5-1.3,5.5-8.2,5.5s-8.2-4-8.2-5.5s3.7-2.7,8.2-2.7C73.3,58.7,77,59.9,77,61.4z"/>
<path class="st4" d="M57.7,64.2c-0.6,0.1-1.7,0.4-2.1,0.4l-1.9,15.7h5L57.7,64.2L57.7,64.2z"/>
<path class="st4" d="M78.7,80.3h5l-1.8-15.6c-0.5-0.1-1.7-0.3-2.1-0.4L78.7,80.3z"/>
<path class="st4" d="M85.1,80.3H53c0,10.8-10.1,11.9-10.1,11.9l3.1,27.2h45.4l2.4-27.2C93.8,92.2,85.1,91.6,85.1,80.3z"/>
<path class="st5" d="M75.6,66.5c0.1,0.9-0.3,1.7-1,2.3c-1,0.8-2.9,1.7-5.9,1.7s-4.8-0.9-5.9-1.7c-0.8-0.6-1.1-1.4-1-2.3L64.2,51h9.6
	L75.6,66.5L75.6,66.5z"/>
<path class="st6" d="M73.7,51h-9.6l-1,6.7c1.1,0.4,2.4,0.6,3.7,0.6c3.3,0.2,5.6-0.6,7.5-2.3L73.7,51L73.7,51z"/>
<path class="st5" d="M56.8,48.8l4.7-1.3l1.1,4l-4.7,1.3c-1.1,0.3-2.3-0.3-2.6-1.4C55,50.3,55.7,49.1,56.8,48.8L56.8,48.8z"/>
<path class="st2" d="M57.3,50.8l4.5-1.3"/>
<path class="st5" d="M79.6,52.9l-4.7-1.3l1.1-4l4.7,1.3c1.1,0.3,1.8,1.5,1.4,2.6C81.9,52.6,80.7,53.2,79.6,52.9L79.6,52.9z"/>
<path class="st2" d="M80.1,50.8l-4.5-1.3"/>
<path class="st5" d="M68.7,56.5c6.4,0,11.5-5.2,11.5-11.5c0-6.4-5.2-11.5-11.5-11.5c-6.4,0-11.5,5.2-11.5,11.5
	C57.2,51.3,62.4,56.5,68.7,56.5z"/>
<path class="st7" d="M80,48.4c0,0.6-0.5,1.2-1.2,1.2c-0.6,0-1.2-0.5-1.2-1.2c0,0,0-5.2,0-6.4c0-2.7-0.9-3.4-1.3-3.9
	c-1.3-1.4-5.8-2-7.6-2c-2,0-6,0.4-7.7,2c-0.4,0.4-1.3,1.1-1.3,3.9v6.4c0,0.6-0.5,1.2-1.2,1.2c-0.7,0-1.2-0.5-1.2-1.2v-5
	c0-1.8,2.7-10.2,11.3-10.2S80,40.9,80,42.6L80,48.4L80,48.4z"/>
<path class="st2" d="M80,42.6v5.7c0,0.6-0.5,1.2-1.2,1.2c-0.6,0-1.2-0.5-1.2-1.2c0,0,0-5.2,0-6.4c0-2.7-0.9-3.4-1.3-3.9
	c-1.3-1.4-5.8-2-7.6-2c-2,0-6,0.4-7.7,2c-0.4,0.4-1.3,1.1-1.3,3.9v6.4c0,0.6-0.5,1.2-1.2,1.2c-0.7,0-1.2-0.5-1.2-1.2v-5.7"/>
<path class="st2" d="M68.7,42c-0.7,2.2,0,3.8,0,3.8"/>
<path class="st2" d="M72.5,50c-0.6,1-1.9,1.7-3.8,1.3"/>
<path class="st2" d="M71.8,43.5c0.4-0.4,1.1-0.7,1.9-0.7c0.7,0,1.4,0.2,1.8,0.6"/>
<path class="st2" d="M61.9,43.5c0.4-0.4,1.1-0.7,1.9-0.7c0.7,0,1.4,0.2,1.8,0.6"/>
<path class="st1" d="M35.3,112.5C33.6,107.8,37,103,41,102c0,0,21.6-5.7,42.6-6.9c2.4-0.2,4.8,1.6,5.1,3.7c0.4,3-1.7,4.1-3.7,4.7
	c-19.2,5.6-31.8,10.7-38.3,12.2C43.5,116.4,37.3,117.7,35.3,112.5L35.3,112.5z"/>
<path class="st8" d="M77.6,100.2c-0.5-2.7-2.1-4.4-2.1-4.4s5.8-0.6,8-0.7c2.4-0.2,4.8,1.6,5.1,3.7c0.4,3-1.7,4.1-3.7,4.7
	c-2.3,0.7-7.9,2.6-7.9,2.6S78.2,103.4,77.6,100.2L77.6,100.2z"/>
<path class="st2" d="M38.9,102.8c0.6-0.3,1.3-0.5,2-0.8c0,0,21.6-5.7,42.6-6.9c2.4-0.2,4.7,1.6,5.1,3.7c0.5,2.8-1.7,4.1-3.7,4.7
	c-14.2,4.1-32.3,10.5-38.4,12.3c-4.3,1.2-7.3,0.8-7.3,0.8"/>
<path class="st8" d="M89,97c-3.8-1.9-6.1-1.6-7.8,0c-1.6,1.6-1.9,4.9,0,6.3c1.8,1.4,5.1,1.1,7.1,2.3s3,2.1,2.9,2.6
	c-0.1,0.6-0.3,2.1-0.2,3.3s1,1.3,1,1.3s0.6,1,1.6,1.1s1.2,0.2,1.4-0.2c0.2-0.3-0.1-1.4-0.1-1.4s0.5-0.1,0.7-0.2
	c0.2-0.2,0.1-1.4,0.4-2.6c0.3-1.2,0.8-2,0.7-2.8s-1.2-2.2-2-4c-0.8-1.8-1.4-2.9-2.7-3.9C90.7,97.9,89.8,97.4,89,97L89,97z"/>
<path class="st2" d="M81.3,103.3c1.8,1.4,5.6,0.9,7.4,2.3c1.6,1.4,2.7,2.1,2.6,2.6c-0.1,0.6-0.3,2.1-0.2,3.3
	c0.1,1.2,1.3,1.7,1.3,1.7s0.3,0.8,1.2,1c0.7,0.2,1.3-0.1,1.4-0.4c0.2-0.3,0-1.2,0-1.2s0.5-0.1,0.7-0.2s0-1.6,0.4-2.8
	c0.3-1.2,0.9-2,0.7-2.8c-0.2-0.8-1.2-2.2-2-4c-0.8-1.8-1.4-2.9-2.7-3.9c-1.3-1-2.3-1.5-3-1.9c-1.2-0.7-2.2-1.1-3-1.4l-1-0.3"/>
<path class="st2" d="M92,101.6c0.9,2.1,1.8,3.6,2.2,4.6s0.4,1.5,0.4,2.5c0.1,1.7,0.4,3.9,0.4,3.9"/>
<path class="st2" d="M91,107.7c0.2,0.2,0.6,0.6,0.7,2.1s0.1,2.6,0.6,3.5"/>
<path class="st2" d="M75.5,96c0,0,1.8,1.9,2.2,4.7c0.4,2.8-0.6,5.2-0.6,5.2"/>
<path class="st1" d="M101.8,112.4c1.8-5.3-1.5-9.2-5.4-10.4c0,0-21.4-6.2-42.4-8c-2.4-0.2-4.8,1.5-5.2,3.6c-0.5,3,1.6,4.1,3.6,4.8
	c19,6.1,31.6,11.5,38,13.1C93.5,116.3,100,117.9,101.8,112.4L101.8,112.4z"/>
<path class="st8" d="M58.5,99.2c0.7-2.6,2.8-4.4,2.8-4.4S56.2,94.2,54,94c-2.4-0.2-4.8,1.5-5.2,3.6c-0.5,3,1.6,4.1,3.6,4.8
	c2.3,0.7,6.1,2,6.1,2S57.8,101.8,58.5,99.2L58.5,99.2z"/>
<path class="st2" d="M98.4,102.8c-0.6-0.3-1.2-0.6-2-0.8c0,0-21.4-6.2-42.4-8c-2.4-0.2-4.8,1.5-5.2,3.6c-0.5,2.8,1.6,4.1,3.6,4.8
	c14.1,4.4,32.1,11.3,38.1,13.2c4.3,1.3,7.3,1,7.3,1"/>
<path class="st2" d="M61.3,95c0,0-1.9,1.6-2.8,4.1c-0.8,2.6-0.2,5-0.2,5"/>
<path class="st8" d="M54,94c-3.5-0.3-6.1-0.1-9.2,3.9c-2.1,2.7-2.9,3.8-2.9,3.8s0.9-0.2,3-0.7c2.1-0.5,4.7,0.4,6.8,1.1
	C53.8,102.8,56.5,94.3,54,94L54,94z"/>
<path class="st2" d="M55.4,94.1L54,94c-3.5-0.3-6.1-0.1-9.2,3.9c-2.1,2.7-2.9,3.8-2.9,3.8s0.9-0.2,3-0.7c2.1-0.5,4.7,0.4,6.8,1.1
	l1.5,0.5"/>
<path class="st1" d="M82.8,26.7c-0.3-0.1-0.6-0.2-0.9-0.2c-1.9-0.3-3.6-1.5-4.4-3.2c-1.6-3.4-5-5.8-9-5.8c-4.4,0-8.2,2.9-9.5,6.9
	c-0.4-0.1-0.9-0.1-1.4-0.1c-4.1,0-7.4,3.3-7.4,7.4s3.1,7.1,7,7.3c1.8-4,6.3-6.9,11.5-6.9c4.7,0,8.7,2.3,10.8,5.6
	c0.5,0.1,0.9,0.2,1.4,0.2c3.5,0,6.3-3.1,5.7-6.8C86.4,29.1,84.8,27.3,82.8,26.7L82.8,26.7z"/>
<path class="st9" d="M82.3,35.3c-0.5,0-1.8-0.1-3-0.5c-2.1-3.4-4.6-5.3-9.3-5.3c-5.2,0-9.6,2.8-11.5,6.9c-3.9-0.2-7-3.4-7-7.3
	c0-0.7,0.1-1.3,0.3-1.9c-1,1.3-1.6,2.8-1.6,4.6c0,3.9,3.1,7.1,7,7.3c1.8-4,6.3-6.9,11.5-6.9c4.7,0,8.7,2.3,10.8,5.7
	c0.5,0.1,0.9,0.2,1.4,0.2c2.8,0,5.1-2,5.7-4.6C85.6,34.5,84.1,35.3,82.3,35.3L82.3,35.3z"/>
<path class="st2" d="M82.8,26.7c-0.3-0.1-0.6-0.2-0.9-0.2c-1.9-0.3-3.6-1.5-4.4-3.2c-1.6-3.4-5-5.8-9-5.8c-4.4,0-8.2,2.9-9.5,6.9
	c-0.4-0.1-0.9-0.1-1.4-0.1c-4.1,0-7.4,3.3-7.4,7.4s3.1,7.1,7,7.3c1.8-4,6.3-6.9,11.5-6.9c4.7,0,8.7,2.3,10.8,5.6
	c0.5,0.1,0.9,0.2,1.4,0.2c3.5,0,6.3-3.1,5.7-6.8C86.4,29.1,84.8,27.3,82.8,26.7L82.8,26.7z"/>
<path class="st2" d="M58.5,27.5c0-1.1,0.2-2.1,0.5-3.1"/>
<path class="st1" d="M68.7,36.5c6,0,11.2,3.8,12.4,8.8v-5.7c0-6-5.5-10.9-12.4-10.9c-6.8,0-12.1,4.7-12.4,10.5v6.1
	C57.5,40.2,62.7,36.4,68.7,36.5L68.7,36.5z"/>
<path class="st2" d="M56.4,37.7v7.5c1.1-5,6.3-8.8,12.4-8.8c6,0,11.2,3.8,12.4,8.8v-5.7c0-2.3-0.6-4.2-1.7-5.5"/>
<path class="st2" d="M60.4,31.5c-0.7,0.6-1.3,1.2-1.9,1.9"/>
<path class="st2" d="M71.6,28.9c-0.6-0.1-1.1-0.2-1.7-0.2"/>
<path class="st0" d="M67.7,68.5c0-1.7-1.1-3.1-2.6-3.6c-2.7-0.6-4.8-1.9-4.6-3.6c-0.2,0.6-0.8,3.4-0.8,4.3c0,3.1,3.5,5.6,7.9,6
	L67.7,68.5L67.7,68.5z"/>
<path class="st0" d="M77,61.2c0.3,1.7-1.8,3-4.5,3.6c-1.5,0.5-2.6,1.9-2.6,3.6v3c4.5-0.4,7.9-2.9,7.9-6C77.7,64.6,77.2,62,77,61.2
	L77,61.2z"/>
</svg>
