<svg width="137" height="137" viewBox="0 0 137 137" fill="none" xmlns="http://www.w3.org/2000/svg">
<path d="M119.125 31H33.125C29.8113 31 27.125 33.6863 27.125 37V101C27.125 104.314 29.8113 107 33.125 107H119.125C122.439 107 125.125 104.314 125.125 101V37C125.125 33.6863 122.439 31 119.125 31Z" fill="#B8CFFF" stroke="#100423" stroke-linecap="round" stroke-linejoin="round"/>
<path opacity="0.16" d="M77.875 39H26.875V62C26.875 64.2543 27.7705 66.4163 29.3646 68.0104C30.9587 69.6045 33.1207 70.5 35.375 70.5C37.6293 70.5 39.7913 69.6045 41.3854 68.0104C42.9795 66.4163 43.875 64.2543 43.875 62C43.875 64.2543 44.7705 66.4163 46.3646 68.0104C47.9587 69.6045 50.1207 70.5 52.375 70.5C54.6293 70.5 56.7913 69.6045 58.3854 68.0104C59.9795 66.4163 60.875 64.2543 60.875 62C60.875 64.2543 61.7705 66.4163 63.3646 68.0104C64.9587 69.6045 67.1207 70.5 69.375 70.5C71.6293 70.5 73.7914 69.6045 75.3854 68.0104C76.9795 66.4163 77.875 64.2543 77.875 62C77.875 64.2543 78.7705 66.4163 80.3646 68.0104C81.9587 69.6045 84.1207 70.5 86.375 70.5C88.6293 70.5 90.7914 69.6045 92.3854 68.0104C93.9795 66.4163 94.875 64.2543 94.875 62V39H77.875Z" fill="#40004D"/>
<path d="M100.125 31H119.125C120.716 31 122.242 31.6321 123.368 32.7574C124.493 33.8826 125.125 35.4087 125.125 37V101C125.125 102.591 124.493 104.117 123.368 105.243C122.242 106.368 120.716 107 119.125 107H100.125C98.7989 107 97.5271 106.473 96.5895 105.536C95.6518 104.598 95.125 103.326 95.125 102V36C95.125 34.6739 95.6518 33.4021 96.5895 32.4645C97.5271 31.5268 98.7989 31 100.125 31Z" fill="#F2F7FF"/>
<path d="M100.125 31H119.125C120.716 31 122.242 31.6321 123.368 32.7574C124.493 33.8826 125.125 35.4087 125.125 37V101C125.125 102.591 124.493 104.117 123.368 105.243C122.242 106.368 120.716 107 119.125 107H100.125C98.7989 107 97.5271 106.473 96.5895 105.536C95.6518 104.598 95.125 103.326 95.125 102V36C95.125 34.6739 95.6518 33.4021 96.5895 32.4645C97.5271 31.5268 98.7989 31 100.125 31Z" stroke="#100423" stroke-linecap="round" stroke-linejoin="round"/>
<path d="M70.375 73H82.375C82.9054 73 83.4141 73.2107 83.7892 73.5858C84.1643 73.9609 84.375 74.4696 84.375 75V107H68.375V75C68.375 74.4696 68.5857 73.9609 68.9608 73.5858C69.3359 73.2107 69.8446 73 70.375 73Z" fill="#6D99F2" stroke="#100423" stroke-linecap="round" stroke-linejoin="round"/>
<path d="M73.375 73H70.375C69.8446 73 69.3359 73.2107 68.9608 73.5858C68.5857 73.9609 68.375 74.4696 68.375 75V107H71.375V75C71.375 74.4696 71.5857 73.9609 71.9608 73.5858C72.3359 73.2107 72.8446 73 73.375 73Z" fill="#B8CFFF"/>
<path opacity="0.16" d="M73.375 73H70.375C69.8446 73 69.3359 73.2107 68.9608 73.5858C68.5857 73.9609 68.375 74.4696 68.375 75V107H71.375V75C71.375 74.4696 71.5857 73.9609 71.9608 73.5858C72.3359 73.2107 72.8446 73 73.375 73Z" fill="#40004D"/>
<path d="M73.375 73H70.375C69.8446 73 69.3359 73.2107 68.9608 73.5858C68.5857 73.9609 68.375 74.4696 68.375 75V107H71.375V75C71.375 74.4696 71.5857 73.9609 71.9608 73.5858C72.3359 73.2107 72.8446 73 73.375 73Z" stroke="#100423" stroke-linecap="round" stroke-linejoin="round"/>
<path d="M84.375 103H58.375V107H84.375V103Z" fill="#B8CFFF" stroke="#100423" stroke-linecap="round" stroke-linejoin="round"/>
<path d="M73.375 103H58.375V107H73.375V103Z" fill="#B8CFFF" stroke="#100423" stroke-linecap="round" stroke-linejoin="round"/>
<path d="M57.875 73H35.875C34.7704 73 33.875 73.8954 33.875 75V95C33.875 96.1046 34.7704 97 35.875 97H57.875C58.9796 97 59.875 96.1046 59.875 95V75C59.875 73.8954 58.9796 73 57.875 73Z" fill="#6D99F2" stroke="#100423" stroke-linecap="round" stroke-linejoin="round"/>
<path opacity="0.16" d="M36.875 95V75C36.875 74.4696 37.0857 73.9609 37.4608 73.5858C37.8359 73.2107 38.3446 73 38.875 73H35.875C35.3446 73 34.8359 73.2107 34.4608 73.5858C34.0857 73.9609 33.875 74.4696 33.875 75V95C33.875 95.5304 34.0857 96.0391 34.4608 96.4142C34.8359 96.7893 35.3446 97 35.875 97H38.875C38.3446 97 37.8359 96.7893 37.4608 96.4142C37.0857 96.0391 36.875 95.5304 36.875 95Z" fill="#40004D"/>
<path d="M117.375 47.5H103.375C102.27 47.5 101.375 48.3954 101.375 49.5V56.5C101.375 57.6046 102.27 58.5 103.375 58.5H117.375C118.48 58.5 119.375 57.6046 119.375 56.5V49.5C119.375 48.3954 118.48 47.5 117.375 47.5Z" fill="#B8CFFF" stroke="#100423" stroke-linecap="round" stroke-linejoin="round"/>
<path opacity="0.16" d="M117.375 47.5H114.375C114.905 47.5 115.414 47.7107 115.789 48.0858C116.164 48.4609 116.375 48.9696 116.375 49.5V56.5C116.375 57.0304 116.164 57.5391 115.789 57.9142C115.414 58.2893 114.905 58.5 114.375 58.5H117.375C117.905 58.5 118.414 58.2893 118.789 57.9142C119.164 57.5391 119.375 57.0304 119.375 56.5V49.5C119.375 48.9696 119.164 48.4609 118.789 48.0858C118.414 47.7107 117.905 47.5 117.375 47.5Z" fill="#40004D"/>
<path d="M26.875 39L12.875 55C12.875 57.2543 13.7705 59.4163 15.3646 61.0104C16.9587 62.6045 19.1207 63.5 21.375 63.5C23.6293 63.5 25.7913 62.6045 27.3854 61.0104C28.9795 59.4163 29.875 57.2543 29.875 55L43.875 39H26.875Z" fill="#FA0050"/>
<path d="M43.875 39L29.875 55C29.875 57.2543 30.7705 59.4163 32.3646 61.0104C33.9587 62.6045 36.1207 63.5 38.375 63.5C40.6293 63.5 42.7913 62.6045 44.3854 61.0104C45.9795 59.4163 46.875 57.2543 46.875 55L60.875 39H43.875Z" fill="#F2F7FF"/>
<path d="M60.875 39L46.875 55C46.875 57.2543 47.7705 59.4163 49.3646 61.0104C50.9586 62.6045 53.1207 63.5 55.375 63.5C57.6293 63.5 59.7913 62.6045 61.3854 61.0104C62.9795 59.4163 63.875 57.2543 63.875 55L77.875 39H60.875Z" fill="#FA0050"/>
<path d="M77.875 39L63.875 55C63.875 57.2543 64.7705 59.4163 66.3646 61.0104C67.9586 62.6045 70.1207 63.5 72.375 63.5C74.6293 63.5 76.7913 62.6045 78.3854 61.0104C79.9795 59.4163 80.875 57.2543 80.875 55L94.875 39H77.875Z" fill="#F2F7FF"/>
<path opacity="0.16" d="M21.375 63.5C23.6285 63.4974 25.789 62.601 27.3825 61.0075C28.976 59.414 29.8724 57.2535 29.875 55H12.875C12.875 57.2543 13.7705 59.4163 15.3646 61.0104C16.9587 62.6045 19.1207 63.5 21.375 63.5Z" fill="#40004D"/>
<path opacity="0.16" d="M38.375 63.5C40.6285 63.4974 42.789 62.601 44.3825 61.0075C45.976 59.414 46.8724 57.2535 46.875 55H29.875C29.875 57.2543 30.7705 59.4163 32.3646 61.0104C33.9587 62.6045 36.1207 63.5 38.375 63.5Z" fill="#40004D"/>
<path opacity="0.16" d="M55.375 63.5C57.6285 63.4974 59.789 62.601 61.3825 61.0075C62.976 59.414 63.8724 57.2535 63.875 55H46.875C46.875 57.2543 47.7705 59.4163 49.3646 61.0104C50.9586 62.6045 53.1207 63.5 55.375 63.5Z" fill="#40004D"/>
<path opacity="0.16" d="M72.375 63.5C74.6285 63.4974 76.789 62.601 78.3825 61.0075C79.976 59.414 80.8723 57.2535 80.875 55H63.875C63.875 57.2543 64.7705 59.4163 66.3646 61.0104C67.9586 62.6045 70.1207 63.5 72.375 63.5Z" fill="#40004D"/>
<path d="M26.875 39L12.875 55C12.875 57.2543 13.7705 59.4163 15.3646 61.0104C16.9587 62.6045 19.1207 63.5 21.375 63.5C23.6293 63.5 25.7913 62.6045 27.3854 61.0104C28.9795 59.4163 29.875 57.2543 29.875 55L43.875 39H26.875Z" stroke="#100423" stroke-linecap="round" stroke-linejoin="round"/>
<path d="M43.875 39L29.875 55C29.875 57.2543 30.7705 59.4163 32.3646 61.0104C33.9587 62.6045 36.1207 63.5 38.375 63.5C40.6293 63.5 42.7913 62.6045 44.3854 61.0104C45.9795 59.4163 46.875 57.2543 46.875 55L60.875 39H43.875Z" stroke="#100423" stroke-linecap="round" stroke-linejoin="round"/>
<path d="M60.875 39L46.875 55C46.875 57.2543 47.7705 59.4163 49.3646 61.0104C50.9586 62.6045 53.1207 63.5 55.375 63.5C57.6293 63.5 59.7913 62.6045 61.3854 61.0104C62.9795 59.4163 63.875 57.2543 63.875 55L77.875 39H60.875Z" stroke="#100423" stroke-linecap="round" stroke-linejoin="round"/>
<path d="M77.875 39L63.875 55C63.875 57.2543 64.7705 59.4163 66.3646 61.0104C67.9586 62.6045 70.1207 63.5 72.375 63.5C74.6293 63.5 76.7913 62.6045 78.3854 61.0104C79.9795 59.4163 80.875 57.2543 80.875 55L94.875 39H77.875Z" stroke="#100423" stroke-linecap="round" stroke-linejoin="round"/>
</svg>
