<?xml version="1.0" encoding="utf-8"?>
<!-- Generator: Adobe Illustrator 27.9.0, SVG Export Plug-In . SVG Version: 6.00 Build 0)  -->
<svg version="1.1" id="Layer_1" xmlns="http://www.w3.org/2000/svg" xmlns:xlink="http://www.w3.org/1999/xlink" x="0px" y="0px"
	 viewBox="0 0 137 137" style="enable-background:new 0 0 137 137;" xml:space="preserve">
<style type="text/css">
	.st0{fill:#DFEAFF;stroke:#100423;stroke-linecap:round;stroke-linejoin:round;}
	.st1{fill:#6D99F2;stroke:#100423;stroke-linecap:round;stroke-linejoin:round;}
	.st2{fill:#F2F7FF;stroke:#100423;stroke-linecap:round;stroke-linejoin:round;}
	.st3{fill:none;stroke:#004ADD;stroke-linecap:round;stroke-linejoin:round;}
	.st4{fill:#6D99F2;stroke:#004ADE;stroke-linecap:round;stroke-linejoin:round;}
	.st5{fill:none;stroke:#004ADE;stroke-linecap:round;stroke-linejoin:round;}
</style>
<path class="st0" d="M16,108.5h75v-62H16V108.5z"/>
<path class="st1" d="M91,46.5h30v54c0,4.4-3.6,8-8,8H91V46.5z"/>
<path class="st1" d="M129,28.5H99l-8,18h30L129,28.5z"/>
<path class="st2" d="M8,28.5h30l8,18H16L8,28.5z"/>
<path class="st3" d="M70.5,101h15V86h-15V101z"/>
<path class="st3" d="M50.5,101h15V86h-15V101z"/>
<path class="st3" d="M58,90v7"/>
<path class="st3" d="M61.5,93L58,90l-3.5,3"/>
<path class="st3" d="M78,93.2v3.4c0,1.4,2,1.5,2,0"/>
<path class="st3" d="M81.5,93c0-1.7-1.6-3-3.5-3s-3.5,1.3-3.5,3H81.5z"/>
<path class="st4" d="M98,100.5h12v-20H98V100.5z"/>
<path class="st5" d="M106,88.5h-5"/>
<path class="st5" d="M106,96.5h-5"/>
<path class="st5" d="M103,92.5h-2"/>
<path class="st5" d="M103,84.5h-2"/>
</svg>
