<?xml version="1.0" encoding="utf-8"?>
<!-- Generator: Adobe Illustrator 27.9.0, SVG Export Plug-In . SVG Version: 6.00 Build 0)  -->
<svg version="1.1" id="Layer_1" xmlns="http://www.w3.org/2000/svg" xmlns:xlink="http://www.w3.org/1999/xlink" x="0px" y="0px"
	 viewBox="0 0 137 137" style="enable-background:new 0 0 137 137;" xml:space="preserve">
<style type="text/css">
	.st0{opacity:0.11;fill:#40004D;stroke:#40004D;stroke-miterlimit:10;enable-background:new    ;}
	.st1{fill:#F2F7FF;stroke:#100423;stroke-linecap:round;stroke-linejoin:round;}
	.st2{fill:#B8CFFF;stroke:#004ADE;stroke-linecap:round;stroke-linejoin:round;}
	.st3{fill:none;stroke:#004ADE;stroke-linecap:round;stroke-linejoin:round;}
	.st4{fill:#004ADE;}
	.st5{fill:#6D99F2;}
	.st6{fill:#DFEAFF;stroke:#6D99F2;stroke-linecap:round;stroke-linejoin:round;}
	.st7{fill:#F2F7FF;stroke:#6D99F2;stroke-linecap:round;stroke-linejoin:round;}
	.st8{fill:#B8CFFF;stroke:#6D99F2;stroke-linecap:round;stroke-linejoin:round;}
	.st9{fill:#FFFFFF;stroke:#6D99F2;stroke-linecap:round;stroke-linejoin:round;}
	.st10{fill:#F2F7FF;}
	.st11{fill:none;stroke:#100423;stroke-linecap:round;stroke-linejoin:round;}
	.st12{fill:#DFEAFF;}
	.st13{fill:none;stroke:#6D99F2;stroke-linecap:round;stroke-linejoin:round;}
</style>
<path class="st0" d="M114.5,32.5h-94c-2.2,0-4,1.8-4,4v16c0,2.2,1.8,4,4,4h94c2.2,0,4-1.8,4-4v-16C118.5,34.3,116.7,32.5,114.5,32.5
	z"/>
<path class="st1" d="M120.5,28.5h-94c-2.2,0-4,1.8-4,4v16c0,2.2,1.8,4,4,4h94c2.2,0,4-1.8,4-4v-16C124.5,30.3,122.7,28.5,120.5,28.5
	z"/>
<path class="st2" d="M40,33H29c-1.1,0-2,0.9-2,2v11c0,1.1,0.9,2,2,2h11c1.1,0,2-0.9,2-2V35C42,33.9,41.1,33,40,33z"/>
<path class="st3" d="M38.9,41.7c-0.3,1-0.8,1.8-1.6,2.4c-0.8,0.6-1.8,0.9-2.8,0.9c-1,0-2-0.4-2.8-1c-0.8-0.6-1.3-1.5-1.5-2.5
	c-0.2-1-0.1-2,0.3-2.9c0.4-0.9,1.1-1.6,2-2.1c0.9-0.5,1.9-0.6,2.9-0.4c1,0.2,1.9,0.7,2.5,1.5"/>
<path class="st3" d="M37.9,35.7l0.2,2l-2,0.2"/>
<path class="st4" d="M91.5,34.5h-40c-1.1,0-2,0.9-2,2s0.9,2,2,2h40c1.1,0,2-0.9,2-2S92.6,34.5,91.5,34.5z"/>
<path class="st5" d="M65.8,42.8H51.2c-1,0-1.8,0.8-1.8,1.8s0.8,1.8,1.8,1.8h14.5c1,0,1.8-0.8,1.8-1.8S66.7,42.8,65.8,42.8z"/>
<path class="st5" d="M84.8,42.8H74.2c-1,0-1.8,0.8-1.8,1.8s0.8,1.8,1.8,1.8h10.5c1,0,1.8-0.8,1.8-1.8S85.7,42.8,84.8,42.8z"/>
<path class="st5" d="M115.5,39.5c1.7,0,3-1.3,3-3s-1.3-3-3-3s-3,1.3-3,3S113.8,39.5,115.5,39.5z"/>
<path class="st1" d="M114.5,61.5h-94c-2.2,0-4,1.8-4,4v16c0,2.2,1.8,4,4,4h94c2.2,0,4-1.8,4-4v-16C118.5,63.3,116.7,61.5,114.5,61.5
	z"/>
<path class="st4" d="M85.5,67.5h-40c-1.1,0-2,0.9-2,2s0.9,2,2,2h40c1.1,0,2-0.9,2-2S86.6,67.5,85.5,67.5z"/>
<path class="st5" d="M59.8,75.8H45.2c-1,0-1.8,0.8-1.8,1.8s0.8,1.8,1.8,1.8h14.5c1,0,1.8-0.8,1.8-1.8S60.7,75.8,59.8,75.8z"/>
<path class="st5" d="M78.8,75.8H68.2c-1,0-1.8,0.8-1.8,1.8s0.8,1.8,1.8,1.8h10.5c1,0,1.8-0.8,1.8-1.8S79.7,75.8,78.8,75.8z"/>
<path class="st5" d="M109.5,72.5c1.7,0,3-1.3,3-3s-1.3-3-3-3s-3,1.3-3,3S107.8,72.5,109.5,72.5z"/>
<path class="st6" d="M22.5,70.5h12V79c0,0.4-0.2,0.8-0.4,1.1c-0.3,0.3-0.7,0.4-1.1,0.4h-9c-0.4,0-0.8-0.2-1.1-0.4
	c-0.3-0.3-0.4-0.7-0.4-1.1V70.5z"/>
<path class="st7" d="M29.8,75.5h1.5c0.1,0,0.3,0.1,0.4,0.1c0.1,0.1,0.1,0.2,0.1,0.4v4.5h-2.5V76c0-0.1,0.1-0.3,0.1-0.4
	C29.5,75.6,29.6,75.5,29.8,75.5z"/>
<path class="st7" d="M26.8,75.2h-1.5c-0.3,0-0.5,0.2-0.5,0.5v1.5c0,0.3,0.2,0.5,0.5,0.5h1.5c0.3,0,0.5-0.2,0.5-0.5v-1.5
	C27.2,75.5,27,75.2,26.8,75.2z"/>
<path class="st8" d="M34.6,67.7c-0.1-0.4-0.4-0.7-0.7-0.9c-0.3-0.2-0.7-0.3-1.1-0.3h-8.5c-0.4,0-0.8,0.1-1.1,0.3s-0.6,0.5-0.7,0.9
	l-1.3,2.5C21,70.5,21,70.8,21,71c0.1,0.5,0.4,0.8,0.8,1.1c0.4,0.3,0.8,0.4,1.3,0.3c0.5-0.1,0.9-0.3,1.2-0.6c0.3-0.4,0.5-0.8,0.5-1.3
	c0,0.5,0.2,1,0.6,1.3c0.4,0.4,0.8,0.6,1.3,0.6s1-0.2,1.3-0.6c0.4-0.4,0.6-0.8,0.6-1.3c0,0.2,0,0.5,0.1,0.7c0.1,0.2,0.2,0.4,0.4,0.6
	c0.2,0.2,0.4,0.3,0.6,0.4c0.2,0.1,0.5,0.1,0.7,0.1c0.2,0,0.5,0,0.7-0.1c0.2-0.1,0.4-0.2,0.6-0.4c0.2-0.2,0.3-0.4,0.4-0.6
	c0.1-0.2,0.1-0.5,0.1-0.7c0,0.5,0.2,0.9,0.5,1.3c0.3,0.4,0.7,0.6,1.2,0.6c0.5,0.1,0.9-0.1,1.3-0.3c0.4-0.3,0.7-0.7,0.8-1.1
	c0.1-0.3,0-0.6-0.1-0.8L34.6,67.7z"/>
<path class="st9" d="M25.7,66.5l-1,4.1c0,0.2,0,0.5,0.1,0.7c0.1,0.2,0.2,0.4,0.4,0.6c0.2,0.2,0.4,0.3,0.6,0.4
	c0.2,0.1,0.5,0.1,0.7,0.1s0.5,0,0.7-0.1c0.2-0.1,0.4-0.2,0.6-0.4c0.2-0.2,0.3-0.4,0.4-0.6c0.1-0.2,0.1-0.5,0.1-0.7v-4.1H25.7z"/>
<path class="st9" d="M34.1,72.5c0.4,0,0.8-0.2,1.2-0.4c0.3-0.3,0.6-0.6,0.7-1.1c0.1-0.3,0-0.6-0.1-0.8l-1.3-2.5
	c-0.1-0.4-0.4-0.7-0.7-0.9c-0.3-0.2-0.7-0.3-1.1-0.3h-1.3l0.8,4.1c0,0.3,0,0.5,0.1,0.7c0.1,0.2,0.2,0.4,0.4,0.6
	c0.2,0.2,0.4,0.3,0.6,0.4C33.6,72.4,33.9,72.5,34.1,72.5z"/>
<path class="st10" d="M118.5,108.5v-10c0-1.1-0.4-2.1-1.2-2.8c-0.8-0.8-1.8-1.2-2.8-1.2h-94c-1.1,0-2.1,0.4-2.8,1.2
	c-0.8,0.8-1.2,1.8-1.2,2.8v10H118.5z"/>
<path class="st11" d="M118.5,108.5v-10c0-1.1-0.4-2.1-1.2-2.8c-0.8-0.8-1.8-1.2-2.8-1.2h-94c-1.1,0-2.1,0.4-2.8,1.2
	c-0.8,0.8-1.2,1.8-1.2,2.8v10"/>
<path class="st4" d="M85.5,100.5h-40c-1.1,0-2,0.9-2,2s0.9,2,2,2h40c1.1,0,2-0.9,2-2S86.6,100.5,85.5,100.5z"/>
<path class="st5" d="M109.5,105.5c1.7,0,3-1.3,3-3s-1.3-3-3-3s-3,1.3-3,3S107.8,105.5,109.5,105.5z"/>
<path class="st12" d="M34.5,103.5h-12v5h12V103.5z"/>
<path class="st13" d="M34.5,108.5v-5h-12v5"/>
<path class="st8" d="M34.6,100.7c-0.1-0.4-0.4-0.7-0.7-0.9c-0.3-0.2-0.7-0.3-1.1-0.3h-8.5c-0.4,0-0.8,0.1-1.1,0.3s-0.6,0.5-0.7,0.9
	l-1.3,2.5c-0.1,0.3-0.1,0.5-0.1,0.8c0.1,0.5,0.4,0.8,0.8,1.1c0.4,0.3,0.8,0.4,1.3,0.3c0.5-0.1,0.9-0.3,1.2-0.6
	c0.3-0.4,0.5-0.8,0.5-1.3c0,0.5,0.2,1,0.6,1.3c0.4,0.4,0.8,0.6,1.3,0.6s1-0.2,1.3-0.6c0.4-0.4,0.6-0.8,0.6-1.3c0,0.2,0,0.5,0.1,0.7
	c0.1,0.2,0.2,0.4,0.4,0.6c0.2,0.2,0.4,0.3,0.6,0.4c0.2,0.1,0.5,0.1,0.7,0.1c0.2,0,0.5,0,0.7-0.1c0.2-0.1,0.4-0.2,0.6-0.4
	c0.2-0.2,0.3-0.4,0.4-0.6c0.1-0.2,0.1-0.5,0.1-0.7c0,0.5,0.2,0.9,0.5,1.3c0.3,0.4,0.7,0.6,1.2,0.6c0.5,0.1,0.9-0.1,1.3-0.3
	c0.4-0.3,0.7-0.7,0.8-1.1c0.1-0.3,0-0.6-0.1-0.8L34.6,100.7z"/>
<path class="st9" d="M25.7,99.5l-1,4.1c0,0.2,0,0.5,0.1,0.7c0.1,0.2,0.2,0.4,0.4,0.6c0.2,0.2,0.4,0.3,0.6,0.4
	c0.2,0.1,0.5,0.1,0.7,0.1s0.5,0,0.7-0.1c0.2-0.1,0.4-0.2,0.6-0.4c0.2-0.2,0.3-0.4,0.4-0.6c0.1-0.2,0.1-0.5,0.1-0.7v-4.1H25.7z"/>
<path class="st9" d="M34.1,105.5c0.4,0,0.8-0.2,1.2-0.4c0.3-0.3,0.6-0.6,0.7-1.1c0.1-0.3,0-0.6-0.1-0.8l-1.3-2.5
	c-0.1-0.4-0.4-0.7-0.7-0.9c-0.3-0.2-0.7-0.3-1.1-0.3h-1.3l0.8,4.1c0,0.3,0,0.5,0.1,0.7c0.1,0.2,0.2,0.4,0.4,0.6
	c0.2,0.2,0.4,0.3,0.6,0.4C33.6,105.4,33.9,105.5,34.1,105.5z"/>
<path class="st11" d="M11,108.5h115"/>
</svg>
